<svg width="1399" height="694" viewBox="0 0 1399 694" fill="none" xmlns="http://www.w3.org/2000/svg">
<rect width="1399" height="694" fill="white"/>
<path fill-rule="evenodd" clip-rule="evenodd" d="M936.861 91.1733C932.765 95.1176 927.427 100.029 924.999 102.091L920.586 105.837L921.162 139.767C921.476 158.429 922.553 179.464 923.552 186.512C924.551 193.559 925.663 213.329 926.023 230.446C926.53 254.398 927.288 262.492 929.316 265.576C932.592 270.56 932.585 274.858 929.287 280.862C927.158 284.743 926.926 290.763 927.894 316.973C928.583 335.642 929.817 349.112 930.928 350.105C932.274 351.311 932.204 353.101 930.682 356.481C929.281 359.594 928.566 371.135 928.566 390.659C928.566 414.846 929.047 420.622 931.243 422.833C933.67 425.274 933.633 426.353 930.853 434.377C927.95 442.752 927.943 443.386 930.716 446.174C934.403 449.886 934.507 456.456 930.906 458.357C928.531 459.61 928.319 462.776 929.316 482.162C929.983 495.148 929.709 511.026 928.661 520.032C926.628 537.522 927.569 544.096 931.747 541.578C933.257 540.667 938.18 538.116 942.688 535.905C956.528 529.121 956.421 529.535 954.071 491.591C952.671 469.006 952.571 457.742 953.755 456.113C954.938 454.485 959.33 458.094 967.582 467.475C974.234 475.038 982.079 483.241 985.016 485.701C987.953 488.164 995.596 495.917 1002 502.932C1010.99 512.787 1015.04 515.743 1019.77 515.93C1024.79 516.128 1026.01 517.132 1026.45 521.44C1027.09 527.588 1032.61 531.968 1047.96 538.493C1056.1 541.951 1059.74 542.524 1062.18 540.723C1063.99 539.393 1067.67 538.305 1070.36 538.305C1075.74 538.305 1080.56 532.352 1085.02 520.207C1087.46 513.558 1087.5 512.426 1085.3 511.263C1083.91 510.534 1082.17 510.457 1081.42 511.095C1080.67 511.734 1076.63 511.198 1072.45 509.903C1068.27 508.607 1062.56 507.247 1059.77 506.881C1052.65 505.947 1048.76 503.403 1048.76 499.682C1048.76 495.165 1030.43 484.075 1023.37 484.32C1016.08 484.571 1013.02 481.54 1008.62 469.742C1006.3 463.527 1001.2 456.789 992.705 448.742C976.521 433.407 976.169 430.302 988.986 415.934C994.388 409.877 999.734 404.432 1000.87 403.836C1002 403.237 1003.39 400.749 1003.95 398.305C1004.51 395.859 1005.8 393.86 1006.82 393.86C1007.84 393.86 1012.74 389.538 1017.71 384.257C1024.87 376.655 1026.75 373.281 1026.75 368.055C1026.75 362.357 1027.56 361.246 1032.68 359.925C1035.94 359.084 1038.6 357.441 1038.6 356.274C1038.6 355.109 1040.7 352.865 1043.26 351.293C1053.98 344.704 1057.28 329.931 1049.58 322.989C1045.47 319.289 1045.03 319.412 1037.8 326.255C1033.67 330.167 1029.3 335.294 1028.1 337.652C1022.39 348.821 973.53 415.96 964.337 425.272C958.624 431.059 953.459 435.795 952.858 435.795C952.257 435.795 952.14 426.623 952.597 415.41C953.054 404.199 952.832 382.968 952.104 368.233C951.376 353.497 950.543 312.458 950.254 277.034C949.773 218.217 949.455 212.213 946.594 207.861C943.757 203.549 943.64 201.587 945.365 187.231C947.992 165.35 948.63 83.9953 946.172 84C945.15 84 940.96 87.229 936.861 91.1733ZM203.463 216.889C201.287 219.242 197.505 221.861 195.056 222.707C190.06 224.433 185.96 230.013 187.813 232.564C188.482 233.484 192.183 235.294 196.039 236.585L203.049 238.931L203.364 255.239C204.299 303.451 205.8 331.499 207.696 336.208C208.856 339.085 209.931 347.206 210.083 354.254C210.237 361.301 210.691 372.834 211.092 379.881C211.539 387.763 210.972 394.936 209.618 398.519C206.924 405.639 206.681 421.817 209.267 421.817C210.349 421.817 210.666 423.522 210.016 425.852C209.398 428.07 208.553 444.395 208.138 462.126C207.441 491.991 207.077 494.922 203.202 501.914C200.901 506.066 195.189 511.843 190.508 514.753C183.783 518.937 182 521.197 182 525.542C182 528.566 182.808 531.728 183.794 532.566C185.929 534.384 195.543 529.314 195.543 526.374C195.543 525.246 197.067 524.326 198.929 524.326C200.791 524.326 202.315 525.375 202.315 526.656C202.315 527.937 206.352 528.986 211.287 528.986C216.222 528.986 221.124 530.176 222.183 531.632C223.239 533.086 227.178 534.579 230.936 534.947C234.693 535.316 238.585 536.313 239.584 537.161C240.583 538.011 242.372 537.596 243.559 536.241C245.114 534.463 248.287 535.145 254.911 538.682C261.876 542.4 269.237 543.859 285.267 544.7C309.61 545.977 322.768 543.29 335.083 534.535C339.807 531.176 346.454 526.481 349.854 524.102C353.255 521.724 361.635 513.98 368.476 506.893C379.451 495.523 380.915 493.119 380.915 486.451C380.915 479.763 381.457 478.884 385.631 478.796C389.056 478.721 391.03 476.888 392.833 472.105C394.201 468.48 397.155 460.661 399.4 454.732C405.208 439.39 406.187 422.36 401.827 412.493C399.32 406.82 398.702 402.652 399.501 396.793C400.795 387.306 397.61 379.327 390.717 374.779C387.401 372.591 385.955 369.749 385.684 364.882C385.474 361.127 383.976 357.031 382.356 355.785C380.736 354.536 377.842 351.204 375.929 348.383C372.564 343.418 358.968 332.459 355.522 331.93C352.457 331.462 347.099 327.779 344.674 324.48C342.419 321.409 339.988 321.533 331.616 325.137C328.738 326.376 327.812 325.509 326.947 320.768C326.103 316.137 324.493 314.543 319.534 313.432C311.649 311.666 301.349 304.232 301.349 300.304C301.349 297.347 303.008 295.7 323.265 278.537C331.533 271.534 334.278 267.902 334.313 263.918C334.344 260.54 335.798 257.867 338.329 256.542C342.591 254.312 346.873 243.006 345.938 236.45C344.77 228.272 337.438 223.72 323.925 222.784C316.827 222.29 309.399 220.691 307.418 219.233C305.437 217.775 293.899 216.141 281.776 215.603C269.653 215.065 259.194 214.198 258.534 213.679C257.874 213.157 246.101 212.703 232.375 212.67C210.674 212.616 206.899 213.169 203.463 216.889ZM279.341 234.528C293.638 236.378 308.972 244.923 308.957 251.034C308.918 268.673 299.274 284.704 285.913 289.333C281.662 290.805 275.998 294.542 273.327 297.636C269.502 302.065 267.782 302.755 265.24 300.882C263.464 299.575 261.547 299.144 260.979 299.924C260.411 300.707 254.788 302.13 248.483 303.088C242.177 304.048 235.495 305.522 233.633 306.368C230.478 307.799 230.286 307.023 230.826 294.992C231.368 282.915 231.121 281.931 227.017 279.783C222.079 277.2 221.58 273.654 225.223 267.026C226.669 264.395 227.708 257.434 227.708 250.384C227.708 236.571 228.246 235.958 242.944 233.079C252.067 231.292 255.319 231.422 279.341 234.528ZM1197.06 320.691C1183.59 325.176 1159.18 343.227 1147.95 356.996C1138.57 368.496 1130.02 388.003 1130.02 397.886C1130.02 409.858 1134.64 419.385 1142.78 424.186C1147.09 426.726 1152.69 428.806 1155.22 428.806C1157.75 428.806 1160.74 430.083 1161.88 431.644C1165 435.945 1181.56 434.852 1186.95 429.987C1191.14 426.211 1191.7 426.178 1193.52 429.612C1195.07 432.517 1199.14 433.508 1211.56 433.997L1227.61 434.631L1232.99 446.629C1235.95 453.229 1238.37 461.316 1238.37 464.598C1238.37 473.339 1231.97 495.391 1227.16 503.272C1220.51 514.145 1206.91 521.395 1189.78 523.192C1172.91 524.962 1165.71 522.029 1151.69 507.668C1145.51 501.338 1143.79 497.925 1142.55 489.606C1140.36 474.905 1137.03 472.927 1128.36 481.188C1118.56 490.538 1117.67 493.79 1121.76 505.169C1126.16 517.407 1143.28 532.583 1158.52 537.762C1167.25 540.723 1171.16 540.961 1178.14 538.945C1182.93 537.561 1188.74 536.925 1191.04 537.531C1196.19 538.887 1215.65 531.518 1228.32 523.418C1239.11 516.512 1243.42 510.897 1248.94 496.514C1251.1 490.901 1254.27 486.023 1255.99 485.676C1260.59 484.748 1262.33 481.505 1263.67 471.406C1265.02 461.278 1262.05 437.692 1258.11 427.206C1254.87 418.588 1236.34 403.179 1229.21 403.179C1226.32 403.179 1221.67 402.303 1218.89 401.233C1212.61 398.825 1182.77 402.303 1179.71 405.8C1176.97 408.922 1172.34 406.839 1172.34 402.485C1172.34 400.742 1168.55 396.868 1163.9 393.876C1154.5 387.816 1152.76 383.66 1155.49 373.787C1157.97 364.798 1161.56 359.503 1170.56 351.572C1176.89 345.99 1179.86 344.935 1189.27 344.935C1195.93 344.935 1201.31 343.761 1202.6 342.023C1204.32 339.686 1205.37 340.166 1207.92 344.446C1212.79 352.658 1225.88 354.049 1235.3 347.358C1244 341.175 1250.22 333.666 1250.22 329.328C1250.22 324.347 1242.85 321.798 1233.9 323.678C1227.78 324.962 1223.32 324.326 1216.52 321.192C1211.48 318.874 1207.29 317.064 1207.2 317.171C1207.12 317.278 1202.55 318.863 1197.06 320.691ZM542.586 321.635C529.681 323.911 510.044 333.955 500.577 343.12C496.215 347.342 489.653 352.886 485.995 355.437C482.336 357.991 477.98 363.224 476.315 367.068C474.649 370.912 470.681 376.89 467.498 380.352C455.126 393.811 444.014 450.163 452.123 458.322C455.052 461.271 455.081 461.905 452.55 467.858C450.051 473.738 450.066 475.031 452.75 484.401C454.351 489.993 456.835 495.47 458.272 496.576C459.707 497.683 461.78 501.497 462.875 505.05C465.492 513.539 482.482 530.265 490.53 532.273C494.022 533.144 496.878 534.67 496.878 535.667C496.878 539.241 519.81 542.111 534.122 540.329C567.057 536.229 573.541 534.302 590.834 523.478C610.619 511.093 618.812 500.271 628.301 473.985C635.408 454.301 637.844 431.83 633.42 426.779C631.003 424.019 631.096 423.068 634.372 416.969C637.812 410.567 637.895 409.278 635.977 392.29C633.532 370.653 629.798 360.987 622.935 358.541C619.935 357.471 616.617 353.816 614.799 349.58C611.289 341.408 601.585 331.898 592.183 327.422C586.74 324.831 585.339 324.876 583.038 327.716C580.026 331.429 574.751 329.801 574.751 325.155C574.751 319.415 562.668 318.094 542.586 321.635ZM771.974 321.512C761.335 323.459 740.159 334.092 733.328 340.918C730.477 343.768 723.919 349.245 718.756 353.089C713.592 356.933 707.837 363.41 705.966 367.482C704.095 371.555 700.796 376.228 698.634 377.868C692.597 382.444 681.839 415.245 679.455 436.331C677.464 453.958 677.493 454.268 681.536 458.93C684.199 462.001 684.999 464.288 683.819 465.453C678.121 471.084 680.608 484.131 690.926 502.732C698.138 515.736 712.748 531.315 717.73 531.315C719.682 531.315 722.785 532.765 724.623 534.537C729.902 539.626 748.551 542.41 763.509 540.341C801.921 535.029 803.788 534.495 818.438 524.634C826.304 519.338 833.673 515.007 834.814 515.007C837.274 515.007 850.324 494.056 855.235 482.22C864.695 459.424 868.452 434.274 863.427 427.359C861.385 424.55 861.308 422.977 863.004 418.791C864.148 415.969 865.777 412.971 866.627 412.127C868.892 409.875 864.77 378.805 860.776 368.032C858.238 361.185 856.366 358.913 853.26 358.913C850.436 358.913 847.858 356.353 845.14 350.85C839.799 340.031 833.615 333.645 823.212 328.205C815.457 324.151 814.394 324.058 813.069 327.315C810.981 332.447 808.518 331.856 803.99 325.132C800.609 320.111 798.716 319.352 790.253 319.636C784.855 319.816 776.629 320.661 771.974 321.512ZM270.616 328.897C275.099 330.521 278.737 330.483 282.296 328.776C289.456 325.342 289.715 325.428 295.69 333.286C298.613 337.13 302.644 340.275 304.647 340.275C306.651 340.275 309.014 341.189 309.898 342.302C310.784 343.418 317.543 347.076 324.923 350.433C332.302 353.79 339.92 358.51 341.852 360.924C343.783 363.335 347.594 366.292 350.319 367.492C358.51 371.096 367.448 393.221 370.516 417.477C372.899 436.327 372.86 438.491 369.881 451.659C363.61 479.388 355.708 497.285 344.606 508.903C329.072 525.163 325.324 526.656 300.067 526.656C279.529 526.656 271.664 525.614 245.484 519.429C235.279 517.018 222.755 510.534 222.673 507.619C222.65 506.762 224.862 505.383 227.591 504.558C235.055 502.303 236.723 498.312 234.6 487.791C233.613 482.898 232.802 475.001 232.797 470.241C232.79 463.981 231.851 460.896 229.401 459.093C225.573 456.274 224.972 449.814 228.131 445.459C229.296 443.854 230.371 438.666 230.522 433.927C231.336 408.47 230.811 381.99 229.357 375.012C227.18 364.565 227.26 352.581 229.518 350.659C230.513 349.813 231.119 344.441 230.864 338.724C230.549 331.655 231.189 327.59 232.863 326.024C235.688 323.385 260.647 325.281 270.616 328.897ZM562.928 336.012C567.35 335.774 570.128 337.109 572.393 340.555C574.155 343.239 578.391 346.974 581.804 348.854C585.42 350.846 589.959 356.146 592.681 361.551C595.251 366.653 599.505 372.936 602.134 375.513C605.036 378.355 606.916 382.33 606.916 385.619C606.916 388.599 608.435 397.806 610.292 406.079C613.156 418.844 613.4 423.101 611.905 434.23C610.639 443.665 610.675 448.709 612.036 452.211C613.547 456.095 613.307 458.266 610.846 462.979C609.149 466.224 605.095 475.329 601.834 483.208C597.968 492.553 594.01 498.839 590.45 501.287C587.448 503.354 582.017 508.742 578.381 513.262C570.286 523.327 561.589 525.454 537.934 523.161C522.768 521.689 520.491 520.806 509.936 512.305C502.416 506.245 496.86 503.302 493.856 503.785C489.672 504.458 489.184 503.705 488.304 495.204C487.772 490.079 485.666 482.216 483.623 477.731C481.58 473.246 479.11 465.558 478.133 460.645C476.885 454.373 475.632 452.097 473.921 453.001C470.681 454.713 470.84 452.285 474.317 446.999C476.977 442.952 476.921 442.265 473.393 435.698C469.538 428.522 469.816 424.147 474.124 424.147C475.495 424.147 476.564 421.943 476.564 419.11C476.564 416.34 478.36 409.786 480.555 404.549C482.751 399.311 485.035 392.231 485.631 388.818C486.856 381.787 503.657 359.727 516.347 348.488C521.002 344.364 527.858 340.196 531.583 339.222C545.444 335.602 553.634 334.227 555.131 335.273C555.977 335.865 559.487 336.198 562.928 336.012ZM803.004 341.485C804.831 344.378 809.072 347.992 812.427 349.515C815.782 351.039 818.528 353.275 818.528 354.485C818.528 355.694 822.718 362.543 827.839 369.703C833.248 377.267 837.155 384.813 837.164 387.709C837.17 390.451 838.533 398.985 840.19 406.673C842.332 416.603 842.85 423.688 841.978 431.136C841.303 436.902 841.179 446.174 841.706 451.743C842.496 460.111 842.022 462.734 838.977 466.886C836.95 469.647 833.234 477.673 830.719 484.72C827.495 493.75 824.448 498.701 820.397 501.483C817.235 503.657 812.226 508.666 809.265 512.614C802.647 521.44 786.587 526.747 774.675 524.042C770.396 523.07 763.455 522.211 759.25 522.136C753.507 522.031 748.72 519.676 740.017 512.677C733.643 507.552 726.228 503.358 723.538 503.358C719.225 503.358 718.647 502.527 718.647 496.322C718.647 492.453 716.809 485.282 714.564 480.385C712.318 475.487 709.521 467.079 708.35 461.695C706.941 455.228 705.456 452.313 703.968 453.099C701.226 454.548 701.194 453.907 703.652 446.484C705.231 441.711 705.031 439.483 702.551 434.274C699.589 428.054 699.602 427.823 703.157 424.575C705.158 422.746 706.797 419.769 706.797 417.961C706.797 416.153 708.593 409.728 710.787 403.684C712.981 397.641 715.236 390.074 715.797 386.871C716.738 381.484 733.24 360.693 747.037 347.509C755.222 339.691 766.682 336.201 784.135 336.215C798.156 336.226 800.008 336.744 803.004 341.485Z" fill="black"/>
<path fill-rule="evenodd" clip-rule="evenodd" d="M566.62 42.2959C565.428 42.5183 564.288 43.0453 564.088 43.4675C563.888 43.8887 562.259 45.2442 560.469 46.4792C557.047 48.8392 551.065 56.3031 551.065 58.2114C551.065 58.8273 550.821 59.3346 550.522 59.3385C549.483 59.3533 548.172 64.6984 548.172 68.9202C548.172 71.2595 547.846 73.1727 547.448 73.1727C547.006 73.1727 546.725 77.7871 546.725 85.0374C546.725 92.2877 547.006 96.9021 547.448 96.9021C547.846 96.9021 548.172 97.5695 548.172 98.3852C548.172 99.2009 547.846 99.8683 547.448 99.8683C547.03 99.8683 546.725 102.993 546.725 107.265C546.725 114.284 546.634 114.692 544.958 115.268C543.985 115.601 542.848 115.585 542.431 115.232C541.466 114.417 536.31 121.174 536.901 122.479C537.153 123.037 539.001 123.218 541.235 122.903C543.778 122.544 545.908 122.824 547.374 123.711C549.484 124.988 550.38 126.564 548.995 126.564C547.371 126.564 545.915 147.515 547.448 148.81C548.354 149.575 548.41 156.226 547.51 156.226C547.146 156.226 546.694 159.007 546.506 162.405C546.318 165.804 545.927 169.808 545.637 171.304C545.12 173.965 545.177 174.023 548.268 174.022C552.907 174.02 555.405 170.807 555.405 164.844C555.405 162.143 555.044 160.167 554.501 159.898C553.778 159.54 553.778 159.032 554.501 157.357C555.578 154.863 555.714 144.739 554.682 143.866C554.284 143.53 553.959 142.17 553.959 140.842C553.959 139.514 554.284 138.429 554.682 138.429C555.08 138.429 555.405 137.343 555.405 136.015C555.405 134.687 555.08 133.327 554.682 132.991C553.647 132.116 553.787 125.842 554.863 124.902C555.36 124.467 559.592 124.265 564.267 124.453C569.819 124.676 572.766 124.439 572.766 123.769C572.766 123.204 573.379 122.476 574.127 122.152C574.876 121.827 576.249 120.66 577.178 119.558C578.604 117.868 578.702 117.401 577.807 116.579C577.223 116.042 575.367 115.835 573.682 116.119C571.997 116.403 567.601 116.925 563.913 117.279L557.207 117.923L554.859 114.926C552.533 111.954 551.842 109.756 553.235 109.756C553.653 109.756 553.959 106.644 553.959 102.398C553.959 98.3516 553.633 94.7665 553.235 94.4303C552.837 94.0941 552.512 92.9561 552.512 91.9001C552.512 90.8442 552.837 89.981 553.235 89.981C553.676 89.981 553.959 85.5318 553.959 78.6107C553.959 71.6896 554.241 67.2404 554.682 67.2404C555.08 67.2404 555.405 66.1548 555.405 64.8269C555.405 63.4991 555.731 62.1386 556.129 61.8024C556.526 61.4662 556.852 60.1058 556.852 58.7779C556.852 57.45 557.178 56.3644 557.575 56.3644C557.973 56.3644 558.299 55.6654 558.299 54.8111C558.299 52.8129 560.041 50.4321 561.503 50.4321C562.128 50.4321 562.639 49.9872 562.639 49.4434C562.639 47.6716 568.991 48.3666 571.681 50.4321C573.098 51.5197 574.575 52.4095 574.965 52.4095C575.789 52.4095 580 47.0932 580 46.052C580 43.3064 572.496 41.1994 566.62 42.2959ZM62.4253 80.6603C59.2685 82.9037 57 86.0924 57 88.2844C57 89.9672 57.3262 90.1086 59.7127 89.457C64.2902 88.2092 80.2572 88.0392 84.91 89.1901C88.9746 90.1956 89.2849 90.4546 88.9847 92.6011C88.8061 93.8796 88.3409 94.9247 87.951 94.9247C87.5322 94.9247 87.4027 96.8487 87.6342 99.6211C87.8505 102.205 88.2462 107.099 88.5145 110.497C88.7829 113.896 89.2886 116.677 89.6387 116.677C89.9888 116.677 90.2752 117.566 90.2752 118.654C90.2752 119.742 89.9497 120.631 89.5519 120.631C88.5948 120.631 88.6252 127.681 89.5967 131.175C90.1392 133.125 90.1392 134.042 89.5967 134.289C88.6231 134.732 88.5883 139.098 89.5519 139.912C89.9497 140.248 90.2752 141.583 90.2752 142.878C90.2752 144.173 89.9497 145.508 89.5519 145.844C89.1222 146.207 88.8285 152.446 88.8285 161.227V176H90.6608C91.7907 176 93.4646 174.673 95.0264 172.538C97.1191 169.677 97.4287 168.745 96.8109 167.166C96.3993 166.114 96.0622 163.668 96.0622 161.729C96.0622 159.79 95.7367 158.203 95.3389 158.203C94.941 158.203 94.6155 157.313 94.6155 156.226C94.6155 155.138 94.941 154.248 95.3389 154.248C96.4681 154.248 96.2916 130.81 95.158 130.185C94.4346 129.786 94.4346 129.67 95.158 129.608C96.2236 129.516 96.3993 126.564 95.3389 126.564C94.941 126.564 94.6155 125.674 94.6155 124.586C94.6155 123.499 94.941 122.609 95.3389 122.609C96.4283 122.609 96.2561 111.006 95.158 110.456C94.4346 110.094 94.4346 109.741 95.158 108.693C95.7215 107.876 96.0622 104.486 96.0622 99.6893C96.0622 92.1948 96.1114 91.9792 97.9756 91.3395C99.0281 90.9786 104.273 90.9836 109.631 91.3514C118.712 91.9743 119.612 91.8715 122.908 89.8357C124.853 88.6344 126.444 87.0633 126.444 86.3445C126.444 85.6257 126.77 85.0374 127.167 85.0374C127.565 85.0374 127.891 84.3404 127.891 83.4881C127.891 82.4796 127.448 82.1138 126.625 82.44C122.079 84.2435 118.956 84.8644 114.484 84.8555C111.686 84.8505 107.99 85.3637 106.271 85.9965C104.551 86.6293 102.609 86.825 101.954 86.4315C101.299 86.039 98.9738 85.3528 96.7856 84.9069C84.2141 82.3461 75.7303 80.8996 72.4354 80.7533C70.3817 80.6623 68.4554 80.254 68.1552 79.8466C67.2719 78.6463 64.7553 79.0032 62.4253 80.6603ZM161.491 111.561C161.114 112.01 159.339 113 157.549 113.761C155.759 114.521 153.663 115.933 152.891 116.898C152.12 117.864 151.063 118.654 150.54 118.654C150.019 118.654 149.592 119.099 149.592 119.643C149.592 120.187 149.104 120.631 148.506 120.631C147.203 120.631 139.465 131.409 139.465 133.224C139.465 134.467 139.133 135.584 137.407 140.145C136.322 143.014 136.316 151.99 137.398 152.482C138.003 152.758 137.975 153.5 137.295 155.237C136.615 156.974 136.586 157.716 137.191 157.991C137.645 158.198 138.018 159.017 138.018 159.81C138.018 160.603 138.669 162.207 139.465 163.374C140.26 164.542 140.911 165.975 140.911 166.56C140.911 167.145 142.214 168.723 143.805 170.068C145.396 171.412 146.698 172.852 146.698 173.267C146.698 173.682 147.675 174.023 148.869 174.023C150.062 174.023 151.039 174.467 151.039 175.011C151.039 176.386 163.133 176.281 170.027 174.847C173.11 174.205 175.633 173.313 175.633 172.863C175.633 172.413 176.067 172.045 176.596 172.045C178.356 172.045 184.319 167.389 186.32 164.453C188.758 160.874 190.39 156.977 191.85 151.242C193.217 145.876 193.282 143.68 192.09 143.089C191.367 142.731 191.367 142.223 192.09 140.548C193.17 138.051 193.298 129.903 192.271 129.036C191.873 128.699 191.548 127.571 191.548 126.528C191.548 125.485 190.652 123.866 189.558 122.929C188.465 121.992 186.554 119.868 185.312 118.21C181.485 113.094 180.733 112.557 177.408 112.557C175.636 112.557 174.187 112.149 174.187 111.651C174.187 110.523 162.435 110.44 161.491 111.561ZM225.236 112.739C224.07 113.757 222.843 115.259 222.508 116.076C221.787 117.837 230.804 143.157 232.462 144.026C233.09 144.355 233.503 145.925 233.503 147.977C233.503 149.848 234.013 152.728 234.637 154.377C235.261 156.025 236.378 159.972 237.12 163.147C238.239 167.935 240.327 174.558 241.111 175.809C241.216 175.976 242.722 175.199 244.459 174.084C247.018 172.44 247.787 171.308 248.517 168.111C249.013 165.942 249.418 163.486 249.418 162.654C249.418 161.823 249.705 160.369 250.056 159.425C251.181 156.403 252.123 152.882 253.027 148.316C253.512 145.869 254.2 142.844 254.557 141.595C254.913 140.347 255.205 138.503 255.205 137.499C255.205 134.404 257.296 134.189 257.845 137.227C258.111 138.703 258.955 140.662 259.719 141.58C260.521 142.543 261.015 144.214 260.888 145.536C260.767 146.796 261.04 149.161 261.494 150.791C261.949 152.42 262.507 154.926 262.734 156.36C262.962 157.793 263.959 160.017 264.951 161.304C265.942 162.589 266.759 164.442 266.766 165.421C266.784 167.943 268.726 172.765 270.168 173.868C271.1 174.581 272.114 173.973 274.456 171.297C277.121 168.252 277.583 167.131 277.979 162.75C278.229 159.978 278.702 156.819 279.031 155.731C279.359 154.644 280.3 150.639 281.123 146.833C281.946 143.026 283.774 134.87 285.188 128.708C289.006 112.057 288.538 107.738 283.451 112.688C281.88 114.218 281.338 115.746 280.913 119.856C279.306 135.394 278.249 141.965 276.653 146.336C275.981 148.177 275.231 151.489 274.985 153.695C274.083 161.799 272.322 161.454 270.247 152.765C268.077 143.676 266.594 137.949 265.96 136.218C265.615 135.273 265.332 133.786 265.332 132.912C265.332 132.039 264.681 130.193 263.885 128.811C262.884 127.072 262.438 124.8 262.438 121.437C262.438 114.825 260.83 110.744 258.224 110.744C257.119 110.744 255.341 111.301 254.269 111.98C252.598 113.041 252.322 113.819 252.317 117.483C252.314 119.83 252.651 122.619 253.067 123.68C253.633 125.126 253.542 126.155 252.705 127.79C252.091 128.989 251.588 130.932 251.588 132.109C251.588 134.166 249.891 142.735 248.672 146.833C248.349 147.92 247.884 150.145 247.64 151.776C246.958 156.349 245.703 160.18 244.889 160.18C243.76 160.18 242.232 156.976 242.207 154.554C242.194 153.362 241.858 152.112 241.461 151.776C241.063 151.44 240.737 150.327 240.737 149.302C240.737 148.278 240.108 145.969 239.338 144.17C238.569 142.372 237.756 138.723 237.533 136.062C237.102 130.937 236.136 128.541 234.5 128.541C233.551 128.541 233.162 127.228 233.476 125.09C233.621 124.1 232.5 118.467 231.162 113.463C230.299 110.237 228.37 110.002 225.236 112.739ZM323.744 113.268C320.899 115.836 320.5 117.427 321.843 120.855C322.288 121.993 322.607 126.243 322.549 130.3C322.484 134.831 322.783 138.233 323.322 139.121C323.967 140.183 323.991 141.024 323.412 142.291C322.234 144.869 321.906 173.635 323.036 175.179C323.716 176.109 323.925 176.116 323.925 175.209C323.925 174.556 324.418 174.023 325.021 174.023C327.251 174.023 330.707 170.478 329.999 168.914C329.467 167.737 329.04 134.429 329.503 130.187C329.85 127.009 330.458 125.929 333.251 123.531C335.344 121.734 337.578 120.662 339.254 120.65C340.723 120.64 342.125 120.187 342.371 119.643C342.617 119.099 344.896 118.654 347.435 118.654C349.974 118.654 352.253 119.099 352.499 119.643C352.745 120.187 353.528 120.631 354.24 120.631C355.051 120.631 356.023 122.113 356.842 124.594C357.906 127.821 358.162 131.355 358.218 143.627C358.255 151.916 358.523 159.196 358.813 159.806C359.103 160.415 358.859 163.439 358.27 166.527C357.682 169.615 357.201 172.517 357.201 172.976C357.201 174.887 359.679 174.869 362.782 172.936L366.097 170.872L365.514 157.864C365.193 150.709 364.988 139.739 365.058 133.485C365.228 118.312 364.413 115.675 358.675 112.815C354.207 110.588 343.218 109.859 342.371 111.733C342.125 112.277 340.723 112.743 339.254 112.77C337.149 112.809 335.977 113.635 333.714 116.675C332.135 118.794 330.692 120.322 330.506 120.068C330.32 119.814 329.984 117.724 329.759 115.422C329.257 110.275 327.685 109.712 323.744 113.268ZM472.052 113.066C469.774 114.235 467.332 115.861 466.627 116.677C465.922 117.492 463.799 119.271 461.909 120.629C460.02 121.988 458.473 123.626 458.473 124.27C458.473 124.914 457.496 126.391 456.303 127.553C455.109 128.714 454.133 130.302 454.133 131.08C454.133 131.859 453.807 132.496 453.409 132.496C453.012 132.496 452.686 133.386 452.686 134.474C452.686 135.561 452.361 136.451 451.963 136.451C451.565 136.451 451.239 137.759 451.239 139.359C451.239 140.959 450.914 142.542 450.516 142.878C450.118 143.214 449.793 144.994 449.793 146.833C449.793 148.672 450.118 150.451 450.516 150.788C450.914 151.124 451.239 153.649 451.239 156.4C451.239 161.199 451.413 161.634 455.564 167.237C458.204 170.801 460.745 173.309 462.089 173.676C463.299 174.007 464.465 174.665 464.68 175.139C465.234 176.367 478.405 176.205 483.49 174.908C485.843 174.308 488.746 173.242 489.94 172.541C496.471 168.7 498.982 166.978 498.986 166.335C498.987 165.941 499.964 164.197 501.156 162.458C502.347 160.721 503.322 158.607 503.322 157.762C503.322 156.917 503.568 156.226 503.87 156.226C504.632 156.226 506.216 148.951 506.216 145.447C506.216 143.853 505.809 142.288 505.312 141.971C504.588 141.51 504.588 141.279 505.312 140.818C507.669 139.314 505.543 122.609 502.995 122.609C502.475 122.609 500.952 120.902 499.611 118.816C496.438 113.879 494.378 112.459 490.544 112.563C488.819 112.611 487.408 112.22 487.408 111.697C487.408 109.842 476.424 110.82 472.052 113.066ZM173.567 117.062C174.315 117.938 175.228 118.654 175.596 118.654C175.964 118.654 178.076 121.21 180.29 124.333C183.468 128.818 184.314 130.677 184.314 133.173C184.314 134.912 184.642 136.612 185.044 136.95C186.238 137.96 185.704 151.428 184.357 154.248C183.708 155.608 182.7 158.024 182.118 159.618C181.535 161.212 180.123 163.214 178.978 164.067C177.834 164.92 176.14 166.619 175.213 167.843C174.287 169.067 172.859 170.068 172.04 170.068C171.22 170.068 169.917 170.608 169.143 171.269C168.037 172.212 167.211 172.212 165.303 171.269C163.966 170.608 161.511 170.068 159.849 170.068C158.186 170.068 156.826 169.623 156.826 169.079C156.826 168.535 156.175 168.09 155.379 168.09C154.583 168.09 153.929 167.756 153.926 167.349C153.92 166.461 150.417 164.135 149.086 164.135C148.523 164.135 148.145 162.945 148.145 161.169C148.145 159.538 147.901 158.199 147.603 158.195C146.953 158.186 145.252 153.398 145.252 151.58C145.252 150.872 144.997 150.293 144.685 150.293C143.849 150.293 143.72 141.584 144.546 140.885C144.934 140.558 145.252 139.426 145.252 138.37C145.252 137.314 145.577 136.451 145.975 136.451C146.373 136.451 146.698 135.834 146.698 135.081C146.698 131.331 153.56 120.565 156.863 119.133C157.638 118.796 158.272 118.106 158.272 117.599C158.272 117.092 159.168 116.67 160.262 116.662C161.356 116.653 162.739 116.212 163.336 115.68C164.932 114.258 171.985 115.211 173.567 117.062ZM487.188 116.89C487.83 117.86 488.712 118.657 489.148 118.66C489.583 118.664 491.6 121.001 493.63 123.856C497.77 129.679 498.246 131.616 498.751 144.677C499.056 152.586 498.948 153.562 497.588 155.175C496.763 156.152 496.089 157.678 496.089 158.566C496.089 159.454 495.763 160.18 495.365 160.18C494.967 160.18 494.642 160.862 494.642 161.694C494.642 162.528 494.072 163.505 493.376 163.865C492.68 164.226 491.133 165.768 489.94 167.29C488.68 168.896 486.953 170.061 485.823 170.063C484.753 170.066 483.656 170.555 483.387 171.151C483.084 171.82 481.892 171.987 480.27 171.586C478.824 171.23 475.934 170.701 473.845 170.412C471.756 170.122 470.047 169.481 470.047 168.987C470.047 168.494 469.64 168.08 469.143 168.068C468.646 168.057 467.425 167.177 466.43 166.113C465.436 165.049 464.052 164.169 463.356 164.157C462.66 164.145 462.09 163.505 462.09 162.733C462.09 160.979 458.45 150.9 457.661 150.47C457.341 150.295 457.454 149.33 457.913 148.326C458.551 146.929 458.535 146.149 457.845 145.013C457.238 144.013 457.164 142.936 457.617 141.719C460.041 135.222 461.367 131.183 461.367 130.294C461.367 127.872 470.342 118.577 474.598 116.591C479.428 114.337 485.595 114.484 487.188 116.89Z" fill="#E36165"/>
<path fill-rule="evenodd" clip-rule="evenodd" d="M202.356 576.045C204.26 576.965 204.309 593.374 202.414 595.643C201.334 596.937 202.251 597.307 206.541 597.307C209.575 597.307 213.064 596.661 214.295 595.872C217.097 594.076 217.228 588.226 214.508 586.328C213.385 585.543 213.126 584.896 213.93 584.872C215.776 584.82 215.817 578.982 213.987 576.79C213.224 575.876 209.969 575.177 206.754 575.236C203.54 575.296 201.561 575.661 202.356 576.045ZM237.567 578.335C232.152 585.24 236.408 597.307 244.258 597.307C249.261 597.307 252.411 593.022 252.411 586.217C252.411 582.52 251.64 579.747 250.097 577.899C246.874 574.039 240.772 574.251 237.567 578.335ZM272.935 577.553C270 581.454 269.391 586.859 271.371 591.444C274.337 598.315 280.82 599.447 285.448 593.904C291.309 586.884 287.351 575.127 279.125 575.127C276.435 575.127 274.06 576.057 272.935 577.553ZM306.766 577.808C307.425 579.283 307.964 583.067 307.964 586.217C307.964 589.366 307.425 593.151 306.766 594.626C305.697 597.02 305.969 597.307 309.312 597.307C312.224 597.307 312.748 596.937 311.668 595.643C310.031 593.683 309.797 587.603 311.358 587.603C312.871 587.603 317.314 595.349 316.417 596.424C316.011 596.909 317.559 597.307 319.856 597.307H324.033L318.603 591.06L313.172 584.814L317.495 579.97C321.74 575.214 321.766 575.127 318.873 575.127C317.254 575.127 316.202 575.655 316.534 576.301C316.868 576.947 315.597 579.247 313.709 581.412L310.279 585.349V581.046C310.279 578.68 310.93 576.43 311.726 576.045C312.522 575.661 311.462 575.296 309.37 575.236C305.96 575.138 305.691 575.403 306.766 577.808ZM342.916 576.79C340.452 579.742 341.43 583.343 345.564 586.551C349.8 589.838 350.875 594.049 347.834 595.447C346.812 595.916 344.882 594.97 343.354 593.249L340.667 590.227L341.188 593.491C341.604 596.098 342.53 596.822 345.786 597.084C354.304 597.771 355.853 590.154 348.397 584.243C343.738 580.55 342.946 577.593 346.401 576.79C347.386 576.562 349.035 577.387 350.067 578.622C351.798 580.695 351.943 580.647 351.943 577.998C351.943 575.675 351.215 575.127 348.124 575.127C346.024 575.127 343.68 575.876 342.916 576.79ZM394.02 578.246C394.913 579.961 396.573 584.484 397.711 588.296C400.554 597.832 401.113 598.225 402.719 591.806C403.488 588.732 404.533 586.217 405.043 586.217C405.552 586.217 406.661 588.732 407.508 591.803C408.354 594.877 409.415 596.903 409.864 596.309C410.314 595.714 411.819 591.056 413.21 585.958C414.6 580.859 416.357 576.386 417.115 576.017C417.872 575.648 417.108 575.296 415.417 575.236C412.987 575.151 412.459 575.659 412.896 577.664C413.201 579.06 412.695 582.334 411.773 584.942L410.096 589.683L408.684 585.524C407.906 583.236 407.191 579.962 407.095 578.247C406.956 575.801 406.214 575.128 403.653 575.128C400.684 575.127 400.552 575.325 402.206 577.305C404.366 579.893 404.415 580.672 402.757 585.78L401.49 589.683L399.411 583.444C398.267 580.013 397.567 576.739 397.853 576.167C398.14 575.594 397.029 575.127 395.386 575.127C392.577 575.127 392.495 575.314 394.02 578.246ZM434.983 576.045C435.943 576.509 436.43 579.936 436.43 586.217C436.43 592.498 435.943 595.925 434.983 596.389C434.188 596.773 435.62 597.088 438.166 597.088C440.712 597.088 442.145 596.773 441.349 596.389C440.389 595.925 439.902 592.498 439.902 586.217C439.902 579.936 440.389 576.509 441.349 576.045C442.145 575.661 440.712 575.346 438.166 575.346C435.62 575.346 434.188 575.661 434.983 576.045ZM458.454 578.182C458.485 581.012 458.621 581.096 459.669 578.939C460.319 577.606 461.604 576.513 462.528 576.513C464.757 576.513 464.977 595.318 462.76 596.389C461.964 596.773 463.396 597.088 465.942 597.088C468.488 597.088 469.921 596.773 469.125 596.389C468.163 595.923 467.678 592.474 467.678 586.102C467.678 575.884 468.588 574.571 472.64 578.939C474.797 581.264 474.873 581.249 474.456 578.593C474.08 576.197 472.958 575.765 466.22 575.41C458.748 575.017 458.421 575.134 458.454 578.182ZM491.751 576.79C493.554 578.95 493.554 593.484 491.751 595.643C490.671 596.937 491.216 597.307 494.207 597.307C497.429 597.307 497.827 596.982 496.665 595.304C495.901 594.202 495.448 591.863 495.655 590.105C495.948 587.631 496.882 586.812 499.795 586.476C503.387 586.06 503.556 586.259 503.556 590.865C503.556 593.518 502.906 596.004 502.109 596.389C501.314 596.773 502.746 597.088 505.292 597.088C507.838 597.088 509.271 596.773 508.475 596.389C507.515 595.925 507.028 592.498 507.028 586.217C507.028 579.936 507.515 576.509 508.475 576.045C509.271 575.661 507.838 575.346 505.292 575.346C502.746 575.346 501.314 575.661 502.109 576.045C502.906 576.43 503.556 578.563 503.556 580.787C503.556 584.484 503.209 584.831 499.505 584.831C496.05 584.831 495.455 584.362 495.455 581.642C495.455 579.889 496.08 577.705 496.843 576.79C497.923 575.497 497.357 575.127 494.297 575.127C491.237 575.127 490.671 575.497 491.751 576.79ZM528.709 577.553C525.774 581.454 525.165 586.859 527.145 591.444C530.111 598.315 536.594 599.447 541.222 593.904C547.083 586.884 543.125 575.127 534.899 575.127C532.209 575.127 529.834 576.057 528.709 577.553ZM562.66 584.125C563.581 594.783 565.021 597.307 570.18 597.307C575.348 597.307 577.626 593.217 577.626 583.945C577.626 579.481 578.176 576.479 579.073 576.045C579.869 575.661 578.697 575.306 576.469 575.257C573.909 575.202 572.974 575.591 573.929 576.316C576.276 578.099 575.298 593.13 572.708 595.076C571.237 596.183 570.128 596.183 568.657 595.076C566.067 593.13 565.089 578.099 567.436 576.316C568.425 575.565 567.728 575.162 565.414 575.148L561.882 575.127L562.66 584.125ZM596.179 578.246C596.211 581.031 596.341 581.106 597.394 578.939C598.043 577.606 599.329 576.513 600.253 576.513C602.482 576.513 602.701 595.318 600.484 596.389C599.689 596.773 601.121 597.088 603.667 597.088C606.213 597.088 607.646 596.773 606.849 596.389C604.703 595.351 604.843 576.513 606.998 576.513C607.874 576.513 609.25 577.464 610.055 578.626C611.824 581.179 612.674 580.536 611.672 577.405C611.1 575.62 609.339 575.127 603.543 575.127C596.631 575.127 596.146 575.332 596.179 578.246ZM651.118 586.217V597.307L654.59 597.286C656.924 597.271 657.558 596.881 656.523 596.095C655.648 595.431 655.148 593.195 655.365 590.918C655.688 587.524 656.324 586.843 659.509 586.476C663.101 586.06 663.27 586.259 663.27 590.865C663.27 593.518 662.62 596.004 661.823 596.389C661.028 596.773 661.939 597.138 663.849 597.197L667.321 597.307V586.217V575.127L663.849 575.236C661.939 575.296 661.028 575.661 661.823 576.045C662.62 576.43 663.27 578.563 663.27 580.787C663.27 584.484 662.923 584.831 659.219 584.831C655.516 584.831 655.169 584.484 655.169 580.787C655.169 578.563 655.82 576.43 656.615 576.045C657.412 575.661 656.5 575.296 654.59 575.236L651.118 575.127V586.217ZM686.128 576.045C687.054 576.492 687.574 579.661 687.574 584.847C687.574 594.107 689.358 597.307 694.519 597.307C699.679 597.307 701.463 594.107 701.463 584.847C701.463 579.661 701.983 576.492 702.909 576.045C703.706 575.661 702.82 575.296 700.942 575.236C698.287 575.152 697.837 575.497 698.916 576.79C699.68 577.705 700.305 581.404 700.305 585.009C700.305 593.796 696.818 598.064 692.388 594.699C691.273 593.854 690.947 590.925 691.231 584.321L691.625 575.121L688.153 575.234C686.244 575.295 685.333 575.661 686.128 576.045ZM722.34 577.8C720.711 581.447 721.629 583.58 726.444 587.327C730.968 590.847 731.396 594.953 727.313 595.653C725.763 595.919 724.14 594.893 722.986 592.918L721.138 589.759V593.306C721.138 596.475 721.624 596.876 725.709 597.067C729.199 597.231 730.691 596.578 732.019 594.307C734.174 590.622 732.932 587.349 728.074 583.912C724.133 581.124 723.376 576.513 726.858 576.513C728.096 576.513 729.918 577.899 730.909 579.595L732.711 582.675V578.902C732.711 575.428 732.345 575.127 728.122 575.127C724.775 575.127 723.21 575.851 722.34 577.8ZM751.263 578.246C751.296 581.031 751.425 581.106 752.479 578.939C753.128 577.606 754.414 576.513 755.337 576.513C757.566 576.513 757.786 595.318 755.569 596.389C754.774 596.773 756.205 597.088 758.751 597.088C761.298 597.088 762.73 596.773 761.934 596.389C759.717 595.318 759.937 576.513 762.166 576.513C763.089 576.513 764.375 577.606 765.024 578.939C766.077 581.106 766.207 581.031 766.239 578.246C766.272 575.327 765.792 575.127 758.751 575.127C751.711 575.127 751.231 575.327 751.263 578.246ZM784.603 585.018C784.885 592.169 784.565 595.251 783.446 596.13C782.501 596.873 785.048 597.204 789.988 596.98C796.618 596.68 798.146 596.177 798.462 594.195C798.825 591.916 798.652 591.91 795.487 594.087C789.918 597.914 788.264 595.991 788.264 585.683C788.264 579.829 788.763 576.503 789.71 576.045C790.507 575.661 789.595 575.295 787.685 575.234L784.213 575.12L784.603 585.018ZM815.751 576.045C816.71 576.509 817.197 579.936 817.197 586.217C817.197 592.498 816.71 595.925 815.751 596.389C814.956 596.773 817.763 597.138 821.992 597.197C827.993 597.283 829.835 596.826 830.383 595.114C831.495 591.643 831.251 591.467 828.513 593.762C827.099 594.949 824.755 595.921 823.305 595.921C821.049 595.921 820.67 595.2 820.67 590.912C820.67 586.134 820.83 585.93 824.142 586.512C827.069 587.026 827.6 586.67 827.522 584.244C827.472 582.661 827.168 582.146 826.847 583.098C826.526 584.052 825.005 584.831 823.467 584.831C821.13 584.831 820.67 584.146 820.67 580.672C820.67 577.041 821.082 576.513 823.91 576.513C825.692 576.513 827.776 577.262 828.539 578.177C829.619 579.47 829.928 579.316 829.928 577.484C829.928 575.487 828.733 575.144 822.116 575.236C817.82 575.296 814.956 575.661 815.751 576.045ZM871.014 586.217V597.307H874.428C877.083 597.307 877.534 596.937 876.454 595.643C874.559 593.374 874.608 576.965 876.512 576.045C877.308 575.661 876.396 575.296 874.486 575.236L871.014 575.127V586.217ZM895.666 576.79C897.368 578.83 897.498 590.951 895.857 594.626C894.805 596.98 895.052 597.304 897.882 597.286C900.038 597.271 900.604 596.884 899.591 596.115C898.582 595.348 898.197 592.595 898.434 587.843L898.791 580.72L904.577 589.361L910.364 598L910.709 587.643C910.914 581.516 911.622 576.854 912.445 576.228C913.238 575.625 912.093 575.17 909.785 575.17C907.178 575.17 906.277 575.582 907.257 576.325C908.229 577.064 908.647 579.595 908.414 583.336L908.049 589.192L903.584 582.159C900.723 577.651 898.251 575.127 896.698 575.127C894.815 575.127 894.586 575.497 895.666 576.79ZM954.915 580.88C958.551 586.893 959.627 595.094 956.947 596.389C956.152 596.773 957.584 597.088 960.13 597.088C962.676 597.088 964.109 596.773 963.313 596.389C960.633 595.094 961.709 586.893 965.345 580.88L968.825 575.127L965.634 575.148C963.697 575.162 962.994 575.589 963.846 576.236C964.898 577.037 964.711 578.283 963.096 581.233L960.944 585.162L958.99 581.592C957.916 579.628 957.373 577.37 957.784 576.574C958.24 575.688 957.153 575.127 954.983 575.127H951.435L954.915 580.88ZM988.57 578.78C982.143 588.565 990.941 601.765 1000.01 595.95C1002.71 594.221 1004.61 587.753 1003.84 582.934C1002.55 574.857 992.875 572.223 988.57 578.78ZM1021.76 576.045C1022.68 576.492 1023.21 579.661 1023.21 584.847C1023.21 594.107 1024.99 597.307 1030.15 597.307C1035.15 597.307 1037.09 594.06 1037.09 585.703C1037.09 581.716 1037.72 577.705 1038.48 576.79C1039.56 575.497 1039.13 575.127 1036.52 575.127C1033.9 575.127 1033.47 575.497 1034.55 576.79C1035.31 577.705 1035.94 581.774 1035.94 585.83C1035.94 592.33 1035.6 593.394 1033.08 594.767C1028.53 597.247 1026.68 594.35 1026.68 584.777C1026.68 579.647 1027.2 576.491 1028.12 576.045C1028.92 575.661 1027.49 575.346 1024.94 575.346C1022.4 575.346 1020.96 575.661 1021.76 576.045ZM1057.35 586.217V597.307L1060.82 597.197C1062.73 597.138 1063.64 596.773 1062.84 596.389C1061.23 595.606 1060.83 587.603 1062.41 587.603C1062.96 587.603 1064.65 589.782 1066.17 592.445C1067.68 595.108 1069.88 597.292 1071.04 597.297C1072.86 597.305 1072.67 596.55 1069.68 592.034C1066.32 586.956 1066.28 586.698 1068.42 585.091C1071.3 582.943 1071.29 578.405 1068.42 576.562C1067.19 575.773 1064.19 575.127 1061.76 575.127H1057.35V586.217ZM1111.16 578.114C1111.16 580.92 1111.29 580.963 1113.28 578.807C1117.11 574.654 1118.11 575.984 1118.11 585.247C1118.11 590.191 1117.51 594.702 1116.72 595.643C1115.64 596.937 1116.16 597.307 1119.07 597.307C1122.42 597.307 1122.69 597.02 1121.62 594.626C1119.62 590.144 1120.1 577.959 1122.33 576.937C1123.49 576.402 1124.84 577.059 1125.8 578.633C1127.29 581.082 1127.37 581.06 1127.37 578.164C1127.37 575.328 1126.83 575.127 1119.27 575.127C1111.74 575.127 1111.16 575.34 1111.16 578.114ZM1145.97 578.78C1139.75 588.246 1147.44 600.76 1156.83 596.446C1161.88 594.121 1163.11 583.112 1158.92 577.553C1156 573.662 1148.89 574.335 1145.97 578.78ZM1179.85 578.246C1180.74 579.961 1182.42 584.639 1183.58 588.643C1184.74 592.646 1186.09 595.921 1186.57 595.921C1187.06 595.921 1188.08 593.421 1188.85 590.367C1190.43 584.043 1190.86 584.214 1193.52 592.224C1194.78 596.025 1195.66 597.289 1196.09 595.921C1201.92 577.219 1202.34 575.127 1200.25 575.127C1198.82 575.127 1198.35 575.906 1198.74 577.664C1199.04 579.06 1198.55 582.334 1197.64 584.942L1195.99 589.683L1194.05 584.211C1192.98 581.201 1192.37 577.926 1192.68 576.933C1193.08 575.693 1192.16 575.127 1189.74 575.127C1186.48 575.127 1186.36 575.292 1188.13 577.406C1189.42 578.95 1189.79 580.848 1189.29 583.297C1188 589.52 1186.73 589.426 1184.9 582.97C1183.92 579.539 1183.42 576.372 1183.79 575.93C1184.16 575.489 1183.06 575.127 1181.35 575.127C1178.42 575.127 1178.33 575.306 1179.85 578.246ZM1220.88 576.79C1221.64 577.705 1222.27 581.947 1222.27 586.217C1222.27 590.487 1221.64 594.728 1220.88 595.643C1219.8 596.937 1220.22 597.307 1222.76 597.307C1225.45 597.307 1225.79 596.96 1224.66 595.336C1223.91 594.25 1223.45 590.509 1223.65 587.018L1224.01 580.673L1229.79 589.264L1235.58 597.854L1235.92 587.571C1236.13 581.501 1236.84 576.853 1237.66 576.228C1238.49 575.594 1237.76 575.16 1235.83 575.148C1233 575.13 1232.75 575.454 1233.8 577.808C1235.18 580.896 1235.42 589.019 1234.13 588.93C1233.65 588.898 1231.27 585.779 1228.84 581.999C1225.99 577.575 1223.54 575.127 1221.95 575.127C1220.04 575.127 1219.8 575.497 1220.88 576.79ZM211.904 578.593C213.054 580.252 213.054 581.092 211.904 582.751C209.012 586.925 204.89 583.731 206.536 578.593C206.902 577.449 207.936 576.513 208.833 576.513C209.73 576.513 211.111 577.449 211.904 578.593ZM247.798 578.616C248.599 579.772 249.255 583.192 249.255 586.217C249.255 595.068 245.192 598.561 240.64 593.626C238.289 591.078 237.806 583.482 239.721 579.194C241.15 575.995 245.754 575.665 247.798 578.616ZM282.7 578.807C286.848 583.303 284.142 595.921 279.03 595.921C276.271 595.921 273.244 590.844 273.244 586.217C273.244 581.807 276.229 576.513 278.716 576.513C279.743 576.513 281.536 577.546 282.7 578.807ZM538.773 578.691C543.112 583.889 539.487 596.937 534.052 595.684C529.552 594.645 527.903 583.541 531.481 578.378C533.213 575.878 536.543 576.021 538.773 578.691ZM998.753 578.378C1002.33 583.541 1000.68 594.645 996.181 595.684C991.059 596.865 987.648 586.338 990.84 579.194C992.22 576.108 996.849 575.63 998.753 578.378ZM1065.85 577.74C1068.19 579.517 1066.95 584.074 1063.99 584.581C1061.79 584.957 1061.4 584.383 1061.4 580.769C1061.4 576.469 1062.86 575.472 1065.85 577.74ZM1156.42 578.767C1157.28 580.008 1157.98 583.36 1157.98 586.217C1157.98 595.233 1152.55 599.173 1148.84 592.839C1143.72 584.085 1150.89 570.781 1156.42 578.767ZM211.231 587.058C213.894 588.282 213.552 594.161 210.757 595.223C207.68 596.393 206.118 595.045 206.118 591.218C206.118 586.483 207.511 585.349 211.231 587.058Z" fill="#888888"/>
</svg>
