<svg width="1207" height="556" viewBox="0 0 1207 556" fill="none" xmlns="http://www.w3.org/2000/svg">
<path fill-rule="evenodd" clip-rule="evenodd" d="M879.861 49.1733C875.765 53.1176 870.427 58.0287 867.999 60.0906L863.586 63.8368L864.162 97.7674C864.476 116.429 865.553 137.464 866.552 144.512C867.551 151.559 868.663 171.329 869.023 188.446C869.53 212.398 870.288 220.492 872.316 223.576C875.592 228.56 875.585 232.858 872.287 238.862C870.158 242.743 869.926 248.763 870.894 274.973C871.583 293.642 872.817 307.112 873.928 308.105C875.274 309.311 875.204 311.101 873.682 314.481C872.281 317.594 871.566 329.135 871.566 348.659C871.566 372.846 872.047 378.622 874.243 380.833C876.67 383.274 876.633 384.353 873.853 392.377C870.95 400.752 870.943 401.386 873.716 404.174C877.403 407.886 877.507 414.456 873.906 416.357C871.531 417.61 871.319 420.776 872.316 440.162C872.983 453.148 872.709 469.026 871.661 478.032C869.628 495.522 870.569 502.096 874.747 499.578C876.257 498.667 881.18 496.116 885.688 493.905C899.528 487.121 899.421 487.535 897.071 449.591C895.671 427.006 895.571 415.742 896.755 414.113C897.938 412.485 902.33 416.094 910.582 425.475C917.234 433.038 925.079 441.241 928.016 443.701C930.953 446.164 938.596 453.917 944.999 460.932C953.995 470.787 958.036 473.743 962.774 473.93C967.79 474.128 969.006 475.132 969.451 479.44C970.086 485.588 975.61 489.968 990.961 496.493C999.095 499.951 1002.74 500.524 1005.18 498.723C1006.99 497.393 1010.67 496.305 1013.36 496.305C1018.74 496.305 1023.56 490.352 1028.02 478.207C1030.46 471.558 1030.5 470.426 1028.3 469.263C1026.91 468.534 1025.17 468.457 1024.42 469.095C1023.67 469.734 1019.63 469.198 1015.45 467.903C1011.27 466.607 1005.56 465.247 1002.77 464.881C995.652 463.947 991.762 461.403 991.762 457.682C991.762 453.165 973.433 442.075 966.368 442.32C959.084 442.571 956.018 439.54 951.62 427.742C949.302 421.527 944.198 414.789 935.705 406.742C919.521 391.407 919.169 388.302 931.986 373.934C937.388 367.877 942.734 362.432 943.866 361.836C944.999 361.237 946.385 358.749 946.949 356.305C947.513 353.859 948.804 351.86 949.82 351.86C950.836 351.86 955.735 347.538 960.711 342.257C967.87 334.655 969.754 331.281 969.754 326.055C969.754 320.357 970.563 319.246 975.679 317.925C978.938 317.084 981.604 315.441 981.604 314.274C981.604 313.109 983.698 310.865 986.26 309.293C996.978 302.704 1000.28 287.931 992.576 280.989C988.474 277.289 988.029 277.412 980.802 284.255C976.671 288.167 972.304 293.294 971.098 295.652C965.386 306.821 916.53 373.96 907.337 383.272C901.624 389.059 896.459 393.795 895.858 393.795C895.257 393.795 895.14 384.623 895.597 373.41C896.054 362.199 895.832 340.968 895.104 326.233C894.376 311.497 893.543 270.458 893.254 235.034C892.773 176.217 892.455 170.213 889.594 165.861C886.757 161.549 886.64 159.587 888.365 145.231C890.992 123.35 891.63 41.9953 889.172 42C888.15 42 883.96 45.229 879.861 49.1733ZM146.463 174.889C144.287 177.242 140.505 179.861 138.056 180.707C133.06 182.433 128.96 188.013 130.813 190.564C131.482 191.484 135.183 193.294 139.039 194.585L146.049 196.931L146.364 213.239C147.299 261.451 148.8 289.499 150.696 294.208C151.856 297.085 152.931 305.206 153.083 312.254C153.237 319.301 153.691 330.834 154.092 337.881C154.539 345.763 153.972 352.936 152.618 356.519C149.924 363.639 149.681 379.817 152.267 379.817C153.349 379.817 153.666 381.522 153.016 383.852C152.398 386.07 151.553 402.395 151.138 420.126C150.441 449.991 150.077 452.922 146.202 459.914C143.901 464.066 138.189 469.843 133.508 472.753C126.783 476.937 125 479.197 125 483.542C125 486.566 125.808 489.728 126.794 490.566C128.929 492.384 138.543 487.314 138.543 484.374C138.543 483.246 140.067 482.326 141.929 482.326C143.791 482.326 145.315 483.375 145.315 484.656C145.315 485.937 149.352 486.986 154.287 486.986C159.222 486.986 164.124 488.176 165.183 489.632C166.239 491.086 170.178 492.579 173.936 492.947C177.693 493.316 181.585 494.313 182.584 495.161C183.583 496.011 185.372 495.596 186.559 494.241C188.114 492.463 191.287 493.145 197.911 496.682C204.876 500.4 212.237 501.859 228.267 502.7C252.61 503.977 265.768 501.29 278.083 492.535C282.807 489.176 289.454 484.481 292.854 482.102C296.255 479.724 304.635 471.98 311.476 464.893C322.451 453.523 323.915 451.119 323.915 444.451C323.915 437.763 324.457 436.884 328.631 436.796C332.056 436.721 334.03 434.888 335.833 430.105C337.201 426.48 340.155 418.661 342.4 412.732C348.208 397.39 349.187 380.36 344.827 370.493C342.32 364.82 341.702 360.652 342.501 354.793C343.795 345.306 340.61 337.327 333.717 332.779C330.401 330.591 328.955 327.749 328.684 322.882C328.474 319.127 326.976 315.031 325.356 313.785C323.736 312.536 320.842 309.204 318.929 306.383C315.564 301.418 301.968 290.459 298.522 289.93C295.457 289.462 290.099 285.779 287.674 282.48C285.419 279.409 282.988 279.533 274.616 283.137C271.738 284.376 270.812 283.509 269.947 278.768C269.103 274.137 267.493 272.543 262.534 271.432C254.649 269.666 244.349 262.232 244.349 258.304C244.349 255.347 246.008 253.7 266.265 236.537C274.533 229.534 277.278 225.902 277.313 221.918C277.344 218.54 278.798 215.867 281.329 214.542C285.591 212.312 289.873 201.006 288.938 194.45C287.77 186.272 280.438 181.72 266.925 180.784C259.827 180.29 252.399 178.691 250.418 177.233C248.437 175.775 236.899 174.141 224.776 173.603C212.653 173.065 202.194 172.198 201.534 171.679C200.874 171.157 189.101 170.703 175.375 170.67C153.674 170.616 149.899 171.169 146.463 174.889ZM222.341 192.528C236.638 194.378 251.972 202.923 251.957 209.034C251.918 226.673 242.274 242.704 228.913 247.333C224.662 248.805 218.998 252.542 216.327 255.636C212.502 260.065 210.782 260.755 208.24 258.882C206.464 257.575 204.547 257.144 203.979 257.924C203.411 258.707 197.788 260.13 191.483 261.088C185.177 262.048 178.495 263.522 176.633 264.368C173.478 265.799 173.286 265.023 173.826 252.992C174.368 240.915 174.121 239.931 170.017 237.783C165.079 235.2 164.58 231.654 168.223 225.026C169.669 222.395 170.708 215.434 170.708 208.384C170.708 194.571 171.246 193.958 185.944 191.079C195.067 189.292 198.319 189.422 222.341 192.528ZM1140.06 278.691C1126.59 283.176 1102.18 301.227 1090.95 314.996C1081.57 326.496 1073.02 346.003 1073.02 355.886C1073.02 367.858 1077.64 377.385 1085.78 382.186C1090.09 384.726 1095.69 386.806 1098.22 386.806C1100.75 386.806 1103.74 388.083 1104.88 389.644C1108 393.945 1124.56 392.852 1129.95 387.987C1134.14 384.211 1134.7 384.178 1136.52 387.612C1138.07 390.517 1142.14 391.508 1154.56 391.997L1170.61 392.631L1175.99 404.629C1178.95 411.229 1181.37 419.316 1181.37 422.598C1181.37 431.339 1174.97 453.391 1170.16 461.272C1163.51 472.145 1149.91 479.395 1132.78 481.192C1115.91 482.962 1108.71 480.029 1094.69 465.668C1088.51 459.338 1086.79 455.925 1085.55 447.606C1083.36 432.905 1080.03 430.927 1071.36 439.188C1061.56 448.538 1060.67 451.79 1064.76 463.169C1069.16 475.407 1086.28 490.583 1101.52 495.762C1110.25 498.723 1114.16 498.961 1121.14 496.945C1125.93 495.561 1131.74 494.925 1134.04 495.531C1139.19 496.887 1158.65 489.518 1171.32 481.418C1182.11 474.512 1186.42 468.897 1191.94 454.514C1194.1 448.901 1197.27 444.023 1198.99 443.676C1203.59 442.748 1205.33 439.505 1206.67 429.406C1208.02 419.278 1205.05 395.692 1201.11 385.206C1197.87 376.588 1179.34 361.179 1172.21 361.179C1169.32 361.179 1164.67 360.303 1161.89 359.233C1155.61 356.825 1125.77 360.303 1122.71 363.8C1119.97 366.922 1115.34 364.839 1115.34 360.485C1115.34 358.742 1111.55 354.868 1106.9 351.876C1097.5 345.816 1095.76 341.66 1098.49 331.787C1100.97 322.798 1104.56 317.503 1113.56 309.572C1119.89 303.99 1122.86 302.935 1132.27 302.935C1138.93 302.935 1144.31 301.761 1145.6 300.023C1147.32 297.686 1148.37 298.166 1150.92 302.446C1155.79 310.658 1168.88 312.049 1178.3 305.358C1187 299.175 1193.22 291.666 1193.22 287.328C1193.22 282.347 1185.85 279.798 1176.9 281.678C1170.78 282.962 1166.32 282.326 1159.52 279.192C1154.48 276.874 1150.29 275.064 1150.2 275.171C1150.12 275.278 1145.55 276.863 1140.06 278.691ZM485.586 279.635C472.681 281.911 453.044 291.955 443.577 301.12C439.215 305.342 432.653 310.886 428.995 313.437C425.336 315.991 420.98 321.224 419.315 325.068C417.649 328.912 413.681 334.89 410.498 338.352C398.126 351.811 387.014 408.163 395.123 416.322C398.052 419.271 398.081 419.905 395.55 425.858C393.051 431.738 393.066 433.031 395.75 442.401C397.351 447.993 399.835 453.47 401.272 454.576C402.707 455.683 404.78 459.497 405.875 463.05C408.492 471.539 425.482 488.265 433.53 490.273C437.022 491.144 439.878 492.67 439.878 493.667C439.878 497.241 462.81 500.111 477.122 498.329C510.057 494.229 516.541 492.302 533.834 481.478C553.619 469.093 561.812 458.271 571.301 431.985C578.408 412.301 580.844 389.83 576.42 384.779C574.003 382.019 574.096 381.068 577.372 374.969C580.812 368.567 580.895 367.278 578.977 350.29C576.532 328.653 572.798 318.987 565.935 316.541C562.935 315.471 559.617 311.816 557.799 307.58C554.289 299.408 544.585 289.898 535.183 285.422C529.74 282.831 528.339 282.876 526.038 285.716C523.026 289.429 517.751 287.801 517.751 283.155C517.751 277.415 505.668 276.094 485.586 279.635ZM714.974 279.512C704.335 281.459 683.159 292.092 676.328 298.918C673.477 301.768 666.919 307.245 661.756 311.089C656.592 314.933 650.837 321.41 648.966 325.482C647.095 329.555 643.796 334.228 641.634 335.868C635.597 340.444 624.839 373.245 622.455 394.331C620.464 411.958 620.493 412.268 624.536 416.93C627.199 420.001 627.999 422.288 626.819 423.453C621.121 429.084 623.608 442.131 633.926 460.732C641.138 473.736 655.748 489.315 660.73 489.315C662.682 489.315 665.785 490.765 667.623 492.537C672.902 497.626 691.551 500.41 706.509 498.341C744.921 493.029 746.788 492.495 761.438 482.634C769.304 477.338 776.673 473.007 777.814 473.007C780.274 473.007 793.324 452.056 798.235 440.22C807.695 417.424 811.452 392.274 806.427 385.359C804.385 382.55 804.308 380.977 806.004 376.791C807.148 373.969 808.777 370.971 809.627 370.127C811.892 367.875 807.77 336.805 803.776 326.032C801.238 319.185 799.366 316.913 796.26 316.913C793.436 316.913 790.858 314.353 788.14 308.85C782.799 298.031 776.615 291.645 766.212 286.205C758.457 282.151 757.394 282.058 756.069 285.315C753.981 290.447 751.518 289.856 746.99 283.132C743.609 278.111 741.716 277.352 733.253 277.636C727.855 277.816 719.629 278.661 714.974 279.512ZM213.616 286.897C218.099 288.521 221.737 288.483 225.296 286.776C232.456 283.342 232.715 283.428 238.69 291.286C241.613 295.13 245.644 298.275 247.647 298.275C249.651 298.275 252.014 299.189 252.898 300.302C253.784 301.418 260.543 305.076 267.923 308.433C275.302 311.79 282.92 316.51 284.852 318.924C286.783 321.335 290.594 324.292 293.319 325.492C301.51 329.096 310.448 351.221 313.516 375.477C315.899 394.327 315.86 396.491 312.881 409.659C306.61 437.388 298.708 455.285 287.606 466.903C272.072 483.163 268.324 484.656 243.067 484.656C222.529 484.656 214.664 483.614 188.484 477.429C178.279 475.018 165.755 468.534 165.673 465.619C165.65 464.762 167.862 463.383 170.591 462.558C178.055 460.303 179.723 456.312 177.6 445.791C176.613 440.898 175.802 433.001 175.797 428.241C175.79 421.981 174.851 418.896 172.401 417.093C168.573 414.274 167.972 407.814 171.131 403.459C172.296 401.854 173.371 396.666 173.522 391.927C174.336 366.47 173.811 339.99 172.357 333.012C170.18 322.565 170.26 310.581 172.518 308.659C173.513 307.813 174.119 302.441 173.864 296.724C173.549 289.655 174.189 285.59 175.863 284.024C178.688 281.385 203.647 283.281 213.616 286.897ZM505.928 294.012C510.35 293.774 513.128 295.109 515.393 298.555C517.155 301.239 521.391 304.974 524.804 306.854C528.42 308.846 532.959 314.146 535.681 319.551C538.251 324.653 542.505 330.936 545.134 333.513C548.036 336.355 549.916 340.33 549.916 343.619C549.916 346.599 551.435 355.806 553.292 364.079C556.156 376.844 556.4 381.101 554.905 392.23C553.639 401.665 553.675 406.709 555.036 410.211C556.547 414.095 556.307 416.266 553.846 420.979C552.149 424.224 548.095 433.329 544.834 441.208C540.968 450.553 537.01 456.839 533.45 459.287C530.448 461.354 525.017 466.742 521.381 471.262C513.286 481.327 504.589 483.454 480.934 481.161C465.768 479.689 463.491 478.806 452.936 470.305C445.416 464.245 439.86 461.302 436.856 461.785C432.672 462.458 432.184 461.705 431.304 453.204C430.772 448.079 428.666 440.216 426.623 435.731C424.58 431.246 422.11 423.558 421.133 418.645C419.885 412.373 418.632 410.097 416.921 411.001C413.681 412.713 413.84 410.285 417.317 404.999C419.977 400.952 419.921 400.265 416.393 393.698C412.538 386.522 412.816 382.147 417.124 382.147C418.495 382.147 419.564 379.943 419.564 377.11C419.564 374.34 421.36 367.786 423.555 362.549C425.751 357.311 428.035 350.231 428.631 346.818C429.856 339.787 446.657 317.727 459.347 306.488C464.002 302.364 470.858 298.196 474.583 297.222C488.444 293.602 496.634 292.227 498.131 293.273C498.977 293.865 502.487 294.198 505.928 294.012ZM746.004 299.485C747.831 302.378 752.072 305.992 755.427 307.515C758.782 309.039 761.528 311.275 761.528 312.485C761.528 313.694 765.718 320.543 770.839 327.703C776.248 335.267 780.155 342.813 780.164 345.709C780.17 348.451 781.533 356.985 783.19 364.673C785.332 374.603 785.85 381.688 784.978 389.136C784.303 394.902 784.179 404.174 784.706 409.743C785.496 418.111 785.022 420.734 781.977 424.886C779.95 427.647 776.234 435.673 773.719 442.72C770.495 451.75 767.448 456.701 763.397 459.483C760.235 461.657 755.226 466.666 752.265 470.614C745.647 479.44 729.587 484.747 717.675 482.042C713.396 481.07 706.455 480.211 702.25 480.136C696.507 480.031 691.72 477.676 683.017 470.677C676.643 465.552 669.228 461.358 666.538 461.358C662.225 461.358 661.647 460.527 661.647 454.322C661.647 450.453 659.809 443.282 657.564 438.385C655.318 433.487 652.521 425.079 651.35 419.695C649.941 413.228 648.456 410.313 646.968 411.099C644.226 412.548 644.194 411.907 646.652 404.484C648.231 399.711 648.031 397.483 645.551 392.274C642.589 386.054 642.602 385.823 646.157 382.575C648.158 380.746 649.797 377.769 649.797 375.961C649.797 374.153 651.593 367.728 653.787 361.684C655.981 355.641 658.236 348.074 658.797 344.871C659.738 339.484 676.24 318.693 690.037 305.509C698.222 297.691 709.682 294.201 727.135 294.215C741.156 294.226 743.008 294.744 746.004 299.485Z" fill="black"/>
<path fill-rule="evenodd" clip-rule="evenodd" d="M509.62 0.295878C508.428 0.518341 507.288 1.04533 507.088 1.46751C506.888 1.88871 505.259 3.24425 503.469 4.47916C500.047 6.83925 494.065 14.3031 494.065 16.2114C494.065 16.8273 493.821 17.3346 493.522 17.3385C492.483 17.3533 491.172 22.6984 491.172 26.9202C491.172 29.2595 490.846 31.1727 490.448 31.1727C490.006 31.1727 489.725 35.7871 489.725 43.0374C489.725 50.2877 490.006 54.9021 490.448 54.9021C490.846 54.9021 491.172 55.5695 491.172 56.3852C491.172 57.2009 490.846 57.8683 490.448 57.8683C490.03 57.8683 489.725 60.9926 489.725 65.2649C489.725 72.2839 489.634 72.6922 487.958 73.2676C486.985 73.6008 485.848 73.585 485.431 73.2321C484.466 72.4173 479.31 79.1743 479.901 80.4794C480.153 81.037 482.001 81.218 484.235 80.9026C486.778 80.5437 488.908 80.8245 490.374 81.7114C492.484 82.9878 493.38 84.5638 491.995 84.5638C490.371 84.5638 488.915 105.515 490.448 106.81C491.354 107.575 491.41 114.226 490.51 114.226C490.146 114.226 489.694 117.007 489.506 120.405C489.318 123.804 488.927 127.808 488.637 129.304C488.12 131.965 488.177 132.023 491.268 132.022C495.907 132.02 498.405 128.807 498.405 122.844C498.405 120.143 498.044 118.167 497.501 117.898C496.778 117.54 496.778 117.032 497.501 115.357C498.578 112.863 498.714 102.739 497.682 101.866C497.284 101.53 496.959 100.17 496.959 98.842C496.959 97.5141 497.284 96.4285 497.682 96.4285C498.08 96.4285 498.405 95.3429 498.405 94.015C498.405 92.6872 498.08 91.3267 497.682 90.9905C496.647 90.1155 496.787 83.8421 497.863 82.9018C498.36 82.4667 502.592 82.265 507.267 82.4529C512.819 82.6764 515.766 82.4391 515.766 81.7687C515.766 81.2041 516.379 80.4764 517.127 80.1521C517.876 79.8268 519.249 78.6602 520.178 77.5577C521.604 75.868 521.702 75.4013 520.807 74.5787C520.223 74.0418 518.367 73.8352 516.682 74.1189C514.997 74.4027 510.601 74.9247 506.913 75.2787L500.207 75.9234L497.859 72.9256C495.533 69.9544 494.842 67.7555 496.235 67.7555C496.653 67.7555 496.959 64.644 496.959 60.3984C496.959 56.3516 496.633 52.7665 496.235 52.4303C495.837 52.0941 495.512 50.9561 495.512 49.9001C495.512 48.8442 495.837 47.981 496.235 47.981C496.676 47.981 496.959 43.5318 496.959 36.6107C496.959 29.6896 497.241 25.2404 497.682 25.2404C498.08 25.2404 498.405 24.1548 498.405 22.8269C498.405 21.4991 498.731 20.1386 499.129 19.8024C499.526 19.4662 499.852 18.1058 499.852 16.7779C499.852 15.45 500.178 14.3644 500.575 14.3644C500.973 14.3644 501.299 13.6654 501.299 12.8111C501.299 10.8129 503.041 8.43208 504.503 8.43208C505.128 8.43208 505.639 7.98716 505.639 7.44336C505.639 5.67157 511.991 6.36664 514.681 8.43208C516.098 9.51968 517.575 10.4095 517.965 10.4095C518.789 10.4095 523 5.09316 523 4.05204C523 1.30635 515.496 -0.800616 509.62 0.295878ZM5.42531 38.6603C2.2685 40.9037 0 44.0924 0 46.2844C0 47.9672 0.326242 48.1086 2.71266 47.457C7.29017 46.2092 23.2572 46.0392 27.91 47.1901C31.9746 48.1956 32.2849 48.4546 31.9847 50.6011C31.8061 51.8796 31.3409 52.9247 30.951 52.9247C30.5322 52.9247 30.4027 54.8487 30.6342 57.6211C30.8505 60.2046 31.2462 65.0988 31.5145 68.4971C31.7829 71.8963 32.2886 74.6766 32.6387 74.6766C32.9888 74.6766 33.2752 75.5664 33.2752 76.654C33.2752 77.7416 32.9497 78.6315 32.5519 78.6315C31.5948 78.6315 31.6252 85.6811 32.5967 89.1752C33.1392 91.125 33.1392 92.0415 32.5967 92.2887C31.6231 92.7317 31.5883 97.0979 32.5519 97.9116C32.9497 98.2478 33.2752 99.5825 33.2752 100.878C33.2752 102.173 32.9497 103.508 32.5519 103.844C32.1222 104.207 31.8285 110.446 31.8285 119.227V134H33.6608C34.7907 134 36.4646 132.673 38.0264 130.538C40.1191 127.677 40.4287 126.745 39.8109 125.166C39.3993 124.114 39.0622 121.668 39.0622 119.729C39.0622 117.79 38.7367 116.203 38.3389 116.203C37.941 116.203 37.6155 115.313 37.6155 114.226C37.6155 113.138 37.941 112.248 38.3389 112.248C39.4681 112.248 39.2916 88.8104 38.158 88.1845C37.4346 87.7861 37.4346 87.6704 38.158 87.6081C39.2236 87.5161 39.3993 84.5638 38.3389 84.5638C37.941 84.5638 37.6155 83.674 37.6155 82.5864C37.6155 81.4988 37.941 80.6089 38.3389 80.6089C39.4283 80.6089 39.2561 69.0062 38.158 68.4555C37.4346 68.0937 37.4346 67.7407 38.158 66.6926C38.7215 65.876 39.0622 62.4856 39.0622 57.6893C39.0622 50.1948 39.1114 49.9792 40.9756 49.3395C42.0281 48.9786 47.2725 48.9836 52.6306 49.3514C61.7118 49.9743 62.6117 49.8715 65.9081 47.8357C67.8526 46.6344 69.444 45.0633 69.444 44.3445C69.444 43.6257 69.7695 43.0374 70.1674 43.0374C70.5652 43.0374 70.8907 42.3404 70.8907 41.4881C70.8907 40.4796 70.448 40.1138 69.6248 40.44C65.0791 42.2435 61.9563 42.8644 57.4844 42.8555C54.6857 42.8505 50.99 43.3637 49.2705 43.9965C47.551 44.6293 45.6088 44.825 44.9541 44.4315C44.2995 44.039 41.9738 43.3528 39.7856 42.9069C27.2141 40.3461 18.7303 38.8996 15.4354 38.7533C13.3817 38.6623 11.4554 38.254 11.1552 37.8466C10.2719 36.6463 7.7553 37.0032 5.42531 38.6603ZM104.491 69.5609C104.114 70.0098 102.339 70.9995 100.549 71.7608C98.7588 72.5212 96.6631 73.9331 95.8913 74.8981C95.1202 75.864 94.0626 76.654 93.5403 76.654C93.0188 76.654 92.592 77.099 92.592 77.6428C92.592 78.1866 92.1037 78.6315 91.5062 78.6315C90.2027 78.6315 82.4647 89.4086 82.4647 91.2239C82.4647 92.4667 82.1327 93.5839 80.4075 98.1449C79.3224 101.014 79.3159 109.99 80.3981 110.482C81.0028 110.758 80.9746 111.5 80.2946 113.237C79.6146 114.974 79.5864 115.716 80.1912 115.991C80.6454 116.198 81.018 117.017 81.018 117.81C81.018 118.603 81.669 120.207 82.4647 121.374C83.2604 122.542 83.9115 123.975 83.9115 124.56C83.9115 125.145 85.2136 126.723 86.805 128.068C88.3964 129.412 89.6985 130.852 89.6985 131.267C89.6985 131.682 90.675 132.023 91.8686 132.023C93.0622 132.023 94.0387 132.467 94.0387 133.011C94.0387 134.386 106.133 134.281 113.027 132.847C116.11 132.205 118.633 131.313 118.633 130.863C118.633 130.413 119.067 130.045 119.596 130.045C121.356 130.045 127.319 125.389 129.32 122.453C131.758 118.874 133.39 114.977 134.85 109.242C136.217 103.876 136.282 101.68 135.09 101.089C134.367 100.731 134.367 100.223 135.09 98.5483C136.17 96.0508 136.298 87.9027 135.271 87.0356C134.873 86.6995 134.548 85.5713 134.548 84.5282C134.548 83.4851 133.652 81.8656 132.558 80.9293C131.465 79.992 129.554 77.8682 128.312 76.2101C124.485 71.0944 123.733 70.5566 120.408 70.5566C118.636 70.5566 117.187 70.1492 117.187 69.6509C117.187 68.5228 105.435 68.4397 104.491 69.5609ZM168.236 70.7395C167.07 71.7569 165.843 73.2588 165.508 74.0764C164.787 75.8373 173.804 101.157 175.462 102.026C176.09 102.355 176.503 103.925 176.503 105.977C176.503 107.848 177.013 110.728 177.637 112.377C178.261 114.025 179.378 117.972 180.12 121.147C181.239 125.935 183.327 132.558 184.111 133.809C184.216 133.976 185.722 133.199 187.459 132.084C190.018 130.44 190.787 129.308 191.517 126.111C192.013 123.942 192.418 121.486 192.418 120.654C192.418 119.823 192.705 118.369 193.056 117.425C194.181 114.403 195.123 110.882 196.027 106.316C196.512 103.869 197.2 100.844 197.557 99.5954C197.913 98.3466 198.205 96.5027 198.205 95.4991C198.205 92.4044 200.296 92.1889 200.845 95.2272C201.111 96.7034 201.955 98.662 202.719 99.5796C203.521 100.543 204.015 102.214 203.888 103.536C203.767 104.796 204.04 107.161 204.494 108.791C204.949 110.42 205.507 112.926 205.734 114.36C205.962 115.793 206.959 118.017 207.951 119.304C208.942 120.589 209.759 122.442 209.766 123.421C209.784 125.943 211.726 130.765 213.168 131.868C214.1 132.581 215.114 131.973 217.456 129.297C220.121 126.252 220.583 125.131 220.979 120.75C221.229 117.978 221.702 114.819 222.031 113.731C222.359 112.644 223.3 108.639 224.123 104.833C224.946 101.026 226.774 92.8701 228.188 86.7084C232.006 70.0573 231.538 65.7375 226.451 70.6881C224.88 72.2176 224.338 73.7462 223.913 77.8563C222.306 93.3941 221.249 99.9652 219.653 104.336C218.981 106.177 218.231 109.489 217.985 111.695C217.083 119.799 215.322 119.454 213.247 110.765C211.077 101.676 209.594 95.949 208.96 94.2177C208.615 93.2735 208.332 91.7865 208.332 90.9124C208.332 90.0394 207.681 88.1934 206.885 86.8112C205.884 85.072 205.438 82.7999 205.438 79.4373C205.438 72.8247 203.83 68.7442 201.224 68.7442C200.119 68.7442 198.341 69.3009 197.269 69.9801C195.598 71.041 195.322 71.8192 195.317 75.4834C195.314 77.8296 195.651 80.6188 196.067 81.6797C196.633 83.1262 196.542 84.1555 195.705 85.7898C195.091 86.9892 194.588 88.932 194.588 90.1086C194.588 92.1661 192.891 100.735 191.672 104.833C191.349 105.92 190.884 108.145 190.64 109.776C189.958 114.349 188.703 118.18 187.889 118.18C186.76 118.18 185.232 114.976 185.207 112.554C185.194 111.362 184.858 110.112 184.461 109.776C184.063 109.44 183.737 108.327 183.737 107.302C183.737 106.278 183.108 103.969 182.338 102.17C181.569 100.372 180.756 96.7231 180.533 94.0625C180.102 88.9369 179.136 86.5413 177.5 86.5413C176.551 86.5413 176.162 85.2282 176.476 83.0896C176.621 82.0999 175.5 76.4672 174.162 71.4632C173.299 68.237 171.37 68.0017 168.236 70.7395ZM266.744 71.2684C263.899 73.8362 263.5 75.427 264.843 78.8549C265.288 79.9929 265.607 84.2435 265.549 88.3002C265.484 92.8305 265.783 96.2327 266.322 97.1206C266.967 98.1835 266.991 99.0239 266.412 100.291C265.234 102.869 264.906 131.635 266.036 133.179C266.716 134.109 266.925 134.116 266.925 133.209C266.925 132.556 267.418 132.023 268.021 132.023C270.251 132.023 273.707 128.478 272.999 126.914C272.467 125.737 272.04 92.4291 272.503 88.1865C272.85 85.0087 273.458 83.9291 276.251 81.5314C278.344 79.7339 280.578 78.6621 282.254 78.6503C283.723 78.6404 285.125 78.1866 285.371 77.6428C285.617 77.099 287.896 76.654 290.435 76.654C292.974 76.654 295.253 77.099 295.499 77.6428C295.745 78.1866 296.528 78.6315 297.24 78.6315C298.051 78.6315 299.023 80.1126 299.842 82.5943C300.906 85.8215 301.162 89.3552 301.218 101.627C301.255 109.916 301.523 117.196 301.813 117.806C302.103 118.415 301.859 121.439 301.27 124.527C300.682 127.615 300.201 130.517 300.201 130.976C300.201 132.887 302.679 132.869 305.782 130.936L309.097 128.872L308.514 115.864C308.193 108.709 307.988 97.7386 308.058 91.4849C308.228 76.3119 307.413 73.675 301.675 70.8146C297.207 68.588 286.218 67.8593 285.371 69.733C285.125 70.2768 283.723 70.7434 282.254 70.7701C280.149 70.8087 278.977 71.6353 276.714 74.6746C275.135 76.7944 273.692 78.322 273.506 78.0679C273.32 77.8138 272.984 75.7236 272.759 73.4219C272.257 68.2746 270.685 67.712 266.744 71.2684ZM415.052 71.0658C412.774 72.2354 410.332 73.8609 409.627 74.6766C408.922 75.4923 406.799 77.271 404.909 78.6295C403.02 79.988 401.473 81.6263 401.473 82.27C401.473 82.9136 400.496 84.3908 399.303 85.5525C398.109 86.7143 397.133 88.3022 397.133 89.0803C397.133 89.8594 396.807 90.4962 396.409 90.4962C396.012 90.4962 395.686 91.386 395.686 92.4736C395.686 93.5612 395.361 94.4511 394.963 94.4511C394.565 94.4511 394.239 95.7591 394.239 97.3589C394.239 98.9586 393.914 100.542 393.516 100.878C393.118 101.214 392.793 102.994 392.793 104.833C392.793 106.672 393.118 108.451 393.516 108.788C393.914 109.124 394.239 111.649 394.239 114.4C394.239 119.199 394.413 119.634 398.564 125.237C401.204 128.801 403.745 131.309 405.089 131.676C406.299 132.007 407.465 132.665 407.68 133.139C408.234 134.367 421.405 134.205 426.49 132.908C428.843 132.308 431.746 131.242 432.94 130.541C439.471 126.7 441.982 124.978 441.986 124.335C441.987 123.941 442.964 122.197 444.156 120.458C445.347 118.721 446.322 116.607 446.322 115.762C446.322 114.917 446.568 114.226 446.87 114.226C447.632 114.226 449.216 106.951 449.216 103.447C449.216 101.853 448.809 100.288 448.312 99.9711C447.588 99.5103 447.588 99.279 448.312 98.8183C450.669 97.3144 448.543 80.6089 445.995 80.6089C445.475 80.6089 443.952 78.9024 442.611 76.8162C439.438 71.8795 437.378 70.4587 433.544 70.5635C431.819 70.6109 430.408 70.2204 430.408 69.6974C430.408 67.8415 419.424 68.8204 415.052 71.0658ZM116.567 75.0622C117.315 75.9382 118.228 76.654 118.596 76.654C118.964 76.654 121.076 79.2099 123.29 82.3333C126.468 86.8181 127.314 88.6769 127.314 91.1734C127.314 92.9116 127.642 94.6122 128.044 94.9504C129.238 95.9599 128.704 109.428 127.357 112.248C126.708 113.608 125.7 116.024 125.118 117.618C124.535 119.212 123.123 121.214 121.978 122.067C120.834 122.92 119.14 124.619 118.213 125.843C117.287 127.067 115.859 128.068 115.04 128.068C114.22 128.068 112.917 128.608 112.143 129.269C111.037 130.212 110.211 130.212 108.303 129.269C106.966 128.608 104.511 128.068 102.849 128.068C101.186 128.068 99.8257 127.623 99.8257 127.079C99.8257 126.535 99.1747 126.09 98.379 126.09C97.5833 126.09 96.9293 125.756 96.9264 125.349C96.9199 124.461 93.4166 122.135 92.0863 122.135C91.5228 122.135 91.1452 120.945 91.1452 119.169C91.1452 117.538 90.9007 116.199 90.6027 116.195C89.9531 116.186 88.2517 111.398 88.2517 109.58C88.2517 108.872 87.9971 108.293 87.6853 108.293C86.8491 108.293 86.7196 99.5835 87.5457 98.8855C87.9342 98.5582 88.2517 97.4261 88.2517 96.3702C88.2517 95.3142 88.5772 94.4511 88.9751 94.4511C89.373 94.4511 89.6985 93.8341 89.6985 93.0807C89.6985 89.3314 96.5597 78.5652 99.8626 77.1326C100.638 76.7964 101.272 76.1063 101.272 75.5991C101.272 75.0918 102.168 74.6697 103.262 74.6618C104.356 74.6529 105.739 74.2119 106.336 73.68C107.932 72.2582 114.985 73.2113 116.567 75.0622ZM430.188 74.8901C430.83 75.8601 431.712 76.657 432.148 76.66C432.583 76.6639 434.6 79.0013 436.63 81.8557C440.77 87.6793 441.246 89.6162 441.751 102.677C442.056 110.586 441.948 111.562 440.588 113.175C439.763 114.152 439.089 115.678 439.089 116.566C439.089 117.454 438.763 118.18 438.365 118.18C437.967 118.18 437.642 118.862 437.642 119.694C437.642 120.528 437.072 121.505 436.376 121.865C435.68 122.226 434.133 123.768 432.94 125.29C431.68 126.896 429.953 128.061 428.823 128.063C427.753 128.066 426.656 128.555 426.387 129.151C426.084 129.82 424.892 129.987 423.27 129.586C421.824 129.23 418.934 128.701 416.845 128.412C414.756 128.122 413.047 127.481 413.047 126.987C413.047 126.494 412.64 126.08 412.143 126.068C411.646 126.057 410.425 125.177 409.43 124.113C408.436 123.049 407.052 122.169 406.356 122.157C405.66 122.145 405.09 121.505 405.09 120.733C405.09 118.979 401.45 108.9 400.661 108.47C400.341 108.295 400.454 107.33 400.913 106.326C401.551 104.929 401.535 104.149 400.845 103.013C400.238 102.013 400.164 100.936 400.617 99.719C403.041 93.2221 404.367 89.1831 404.367 88.2943C404.367 85.8719 413.342 76.5769 417.598 74.5906C422.428 72.3373 428.595 72.4836 430.188 74.8901Z" fill="#E36165"/>
<path fill-rule="evenodd" clip-rule="evenodd" d="M145.356 534.045C147.26 534.965 147.309 551.374 145.414 553.643C144.334 554.937 145.251 555.307 149.541 555.307C152.575 555.307 156.064 554.661 157.295 553.872C160.097 552.076 160.228 546.226 157.508 544.328C156.385 543.543 156.126 542.896 156.93 542.872C158.776 542.82 158.817 536.982 156.987 534.79C156.224 533.876 152.969 533.177 149.754 533.236C146.54 533.296 144.561 533.661 145.356 534.045ZM180.567 536.335C175.152 543.24 179.408 555.307 187.258 555.307C192.261 555.307 195.411 551.022 195.411 544.217C195.411 540.52 194.64 537.747 193.097 535.899C189.874 532.039 183.772 532.251 180.567 536.335ZM215.935 535.553C213 539.454 212.391 544.859 214.371 549.444C217.337 556.315 223.82 557.447 228.448 551.904C234.309 544.884 230.351 533.127 222.125 533.127C219.435 533.127 217.06 534.057 215.935 535.553ZM249.766 535.808C250.425 537.283 250.964 541.067 250.964 544.217C250.964 547.366 250.425 551.151 249.766 552.626C248.697 555.02 248.969 555.307 252.312 555.307C255.224 555.307 255.748 554.937 254.668 553.643C253.031 551.683 252.797 545.603 254.358 545.603C255.871 545.603 260.314 553.349 259.417 554.424C259.011 554.909 260.559 555.307 262.856 555.307H267.033L261.603 549.06L256.172 542.814L260.495 537.97C264.74 533.214 264.766 533.127 261.873 533.127C260.254 533.127 259.202 533.655 259.534 534.301C259.868 534.947 258.597 537.247 256.709 539.412L253.279 543.349V539.046C253.279 536.68 253.93 534.43 254.726 534.045C255.522 533.661 254.462 533.296 252.37 533.236C248.96 533.138 248.691 533.403 249.766 535.808ZM285.916 534.79C283.452 537.742 284.43 541.343 288.564 544.551C292.8 547.838 293.875 552.049 290.834 553.447C289.812 553.916 287.882 552.97 286.354 551.249L283.667 548.227L284.188 551.491C284.604 554.098 285.53 554.822 288.786 555.084C297.304 555.771 298.853 548.154 291.397 542.243C286.738 538.55 285.946 535.593 289.401 534.79C290.386 534.562 292.035 535.387 293.067 536.622C294.798 538.695 294.943 538.647 294.943 535.998C294.943 533.675 294.215 533.127 291.124 533.127C289.024 533.127 286.68 533.876 285.916 534.79ZM337.02 536.246C337.913 537.961 339.573 542.484 340.711 546.296C343.554 555.832 344.113 556.225 345.719 549.806C346.488 546.732 347.533 544.217 348.043 544.217C348.552 544.217 349.661 546.732 350.508 549.803C351.354 552.877 352.415 554.903 352.864 554.309C353.314 553.714 354.819 549.056 356.21 543.958C357.6 538.859 359.357 534.386 360.115 534.017C360.872 533.648 360.108 533.296 358.417 533.236C355.987 533.151 355.459 533.659 355.896 535.664C356.201 537.06 355.695 540.334 354.773 542.942L353.096 547.683L351.684 543.524C350.906 541.236 350.191 537.962 350.095 536.247C349.956 533.801 349.214 533.128 346.653 533.128C343.684 533.127 343.552 533.325 345.206 535.305C347.366 537.893 347.415 538.672 345.757 543.78L344.49 547.683L342.411 541.444C341.267 538.013 340.567 534.739 340.853 534.167C341.14 533.594 340.029 533.127 338.386 533.127C335.577 533.127 335.495 533.314 337.02 536.246ZM377.983 534.045C378.943 534.509 379.43 537.936 379.43 544.217C379.43 550.498 378.943 553.925 377.983 554.389C377.188 554.773 378.62 555.088 381.166 555.088C383.712 555.088 385.145 554.773 384.349 554.389C383.389 553.925 382.902 550.498 382.902 544.217C382.902 537.936 383.389 534.509 384.349 534.045C385.145 533.661 383.712 533.346 381.166 533.346C378.62 533.346 377.188 533.661 377.983 534.045ZM401.454 536.182C401.485 539.012 401.621 539.096 402.669 536.939C403.319 535.606 404.604 534.513 405.528 534.513C407.757 534.513 407.977 553.318 405.76 554.389C404.964 554.773 406.396 555.088 408.942 555.088C411.488 555.088 412.921 554.773 412.125 554.389C411.163 553.923 410.678 550.474 410.678 544.102C410.678 533.884 411.588 532.571 415.64 536.939C417.797 539.264 417.873 539.249 417.456 536.593C417.08 534.197 415.958 533.765 409.22 533.41C401.748 533.017 401.421 533.134 401.454 536.182ZM434.751 534.79C436.554 536.95 436.554 551.484 434.751 553.643C433.671 554.937 434.216 555.307 437.207 555.307C440.429 555.307 440.827 554.982 439.665 553.304C438.901 552.202 438.448 549.863 438.655 548.105C438.948 545.631 439.882 544.812 442.795 544.476C446.387 544.06 446.556 544.259 446.556 548.865C446.556 551.518 445.906 554.004 445.109 554.389C444.314 554.773 445.746 555.088 448.292 555.088C450.838 555.088 452.271 554.773 451.475 554.389C450.515 553.925 450.028 550.498 450.028 544.217C450.028 537.936 450.515 534.509 451.475 534.045C452.271 533.661 450.838 533.346 448.292 533.346C445.746 533.346 444.314 533.661 445.109 534.045C445.906 534.43 446.556 536.563 446.556 538.787C446.556 542.484 446.209 542.831 442.505 542.831C439.05 542.831 438.455 542.362 438.455 539.642C438.455 537.889 439.08 535.705 439.843 534.79C440.923 533.497 440.357 533.127 437.297 533.127C434.237 533.127 433.671 533.497 434.751 534.79ZM471.709 535.553C468.774 539.454 468.165 544.859 470.145 549.444C473.111 556.315 479.594 557.447 484.222 551.904C490.083 544.884 486.125 533.127 477.899 533.127C475.209 533.127 472.834 534.057 471.709 535.553ZM505.66 542.125C506.581 552.783 508.021 555.307 513.18 555.307C518.348 555.307 520.626 551.217 520.626 541.945C520.626 537.481 521.176 534.479 522.073 534.045C522.869 533.661 521.697 533.306 519.469 533.257C516.909 533.202 515.974 533.591 516.929 534.316C519.276 536.099 518.298 551.13 515.708 553.076C514.237 554.183 513.128 554.183 511.657 553.076C509.067 551.13 508.089 536.099 510.436 534.316C511.425 533.565 510.728 533.162 508.414 533.148L504.882 533.127L505.66 542.125ZM539.179 536.246C539.211 539.031 539.341 539.106 540.394 536.939C541.043 535.606 542.329 534.513 543.253 534.513C545.482 534.513 545.701 553.318 543.484 554.389C542.689 554.773 544.121 555.088 546.667 555.088C549.213 555.088 550.646 554.773 549.849 554.389C547.703 553.351 547.843 534.513 549.998 534.513C550.874 534.513 552.25 535.464 553.055 536.626C554.824 539.179 555.674 538.536 554.672 535.405C554.1 533.62 552.339 533.127 546.543 533.127C539.631 533.127 539.146 533.332 539.179 536.246ZM594.118 544.217V555.307L597.59 555.286C599.924 555.271 600.558 554.881 599.523 554.095C598.648 553.431 598.148 551.195 598.365 548.918C598.688 545.524 599.324 544.843 602.509 544.476C606.101 544.06 606.27 544.259 606.27 548.865C606.27 551.518 605.62 554.004 604.823 554.389C604.028 554.773 604.939 555.138 606.849 555.197L610.321 555.307V544.217V533.127L606.849 533.236C604.939 533.296 604.028 533.661 604.823 534.045C605.62 534.43 606.27 536.563 606.27 538.787C606.27 542.484 605.923 542.831 602.219 542.831C598.516 542.831 598.169 542.484 598.169 538.787C598.169 536.563 598.82 534.43 599.615 534.045C600.412 533.661 599.5 533.296 597.59 533.236L594.118 533.127V544.217ZM629.128 534.045C630.054 534.492 630.574 537.661 630.574 542.847C630.574 552.107 632.358 555.307 637.519 555.307C642.679 555.307 644.463 552.107 644.463 542.847C644.463 537.661 644.983 534.492 645.909 534.045C646.706 533.661 645.82 533.296 643.942 533.236C641.287 533.152 640.837 533.497 641.916 534.79C642.68 535.705 643.305 539.404 643.305 543.009C643.305 551.796 639.818 556.064 635.388 552.699C634.273 551.854 633.947 548.925 634.231 542.321L634.625 533.121L631.153 533.234C629.244 533.295 628.333 533.661 629.128 534.045ZM665.34 535.8C663.711 539.447 664.629 541.58 669.444 545.327C673.968 548.847 674.396 552.953 670.313 553.653C668.763 553.919 667.14 552.893 665.986 550.918L664.138 547.759V551.306C664.138 554.475 664.624 554.876 668.709 555.067C672.199 555.231 673.691 554.578 675.019 552.307C677.174 548.622 675.932 545.349 671.074 541.912C667.133 539.124 666.376 534.513 669.858 534.513C671.096 534.513 672.918 535.899 673.909 537.595L675.711 540.675V536.902C675.711 533.428 675.345 533.127 671.122 533.127C667.775 533.127 666.21 533.851 665.34 535.8ZM694.263 536.246C694.296 539.031 694.425 539.106 695.479 536.939C696.128 535.606 697.414 534.513 698.337 534.513C700.566 534.513 700.786 553.318 698.569 554.389C697.774 554.773 699.205 555.088 701.751 555.088C704.298 555.088 705.73 554.773 704.934 554.389C702.717 553.318 702.937 534.513 705.166 534.513C706.089 534.513 707.375 535.606 708.024 536.939C709.077 539.106 709.207 539.031 709.239 536.246C709.272 533.327 708.792 533.127 701.751 533.127C694.711 533.127 694.231 533.327 694.263 536.246ZM727.603 543.018C727.885 550.169 727.565 553.251 726.446 554.13C725.501 554.873 728.048 555.204 732.988 554.98C739.618 554.68 741.146 554.177 741.462 552.195C741.825 549.916 741.652 549.91 738.487 552.087C732.918 555.914 731.264 553.991 731.264 543.683C731.264 537.829 731.763 534.503 732.71 534.045C733.507 533.661 732.595 533.295 730.685 533.234L727.213 533.12L727.603 543.018ZM758.751 534.045C759.71 534.509 760.197 537.936 760.197 544.217C760.197 550.498 759.71 553.925 758.751 554.389C757.956 554.773 760.763 555.138 764.992 555.197C770.993 555.283 772.835 554.826 773.383 553.114C774.495 549.643 774.251 549.467 771.513 551.762C770.099 552.949 767.755 553.921 766.305 553.921C764.049 553.921 763.67 553.2 763.67 548.912C763.67 544.134 763.83 543.93 767.142 544.512C770.069 545.026 770.6 544.67 770.522 542.244C770.472 540.661 770.168 540.146 769.847 541.098C769.526 542.052 768.005 542.831 766.467 542.831C764.13 542.831 763.67 542.146 763.67 538.672C763.67 535.041 764.082 534.513 766.91 534.513C768.692 534.513 770.776 535.262 771.539 536.177C772.619 537.47 772.928 537.316 772.928 535.484C772.928 533.487 771.733 533.144 765.116 533.236C760.82 533.296 757.956 533.661 758.751 534.045ZM814.014 544.217V555.307H817.428C820.083 555.307 820.534 554.937 819.454 553.643C817.559 551.374 817.608 534.965 819.512 534.045C820.308 533.661 819.396 533.296 817.486 533.236L814.014 533.127V544.217ZM838.666 534.79C840.368 536.83 840.498 548.951 838.857 552.626C837.805 554.98 838.052 555.304 840.882 555.286C843.038 555.271 843.604 554.884 842.591 554.115C841.582 553.348 841.197 550.595 841.434 545.843L841.791 538.72L847.577 547.361L853.364 556L853.709 545.643C853.914 539.516 854.622 534.854 855.445 534.228C856.238 533.625 855.093 533.17 852.785 533.17C850.178 533.17 849.277 533.582 850.257 534.325C851.229 535.064 851.647 537.595 851.414 541.336L851.049 547.192L846.584 540.159C843.723 535.651 841.251 533.127 839.698 533.127C837.815 533.127 837.586 533.497 838.666 534.79ZM897.915 538.88C901.551 544.893 902.627 553.094 899.947 554.389C899.152 554.773 900.584 555.088 903.13 555.088C905.676 555.088 907.109 554.773 906.313 554.389C903.633 553.094 904.709 544.893 908.345 538.88L911.825 533.127L908.634 533.148C906.697 533.162 905.994 533.589 906.846 534.236C907.898 535.037 907.711 536.283 906.096 539.233L903.944 543.162L901.99 539.592C900.916 537.628 900.373 535.37 900.784 534.574C901.24 533.688 900.153 533.127 897.983 533.127H894.435L897.915 538.88ZM931.57 536.78C925.143 546.565 933.941 559.765 943.013 553.95C945.709 552.221 947.613 545.753 946.843 540.934C945.554 532.857 935.875 530.223 931.57 536.78ZM964.759 534.045C965.685 534.492 966.206 537.661 966.206 542.847C966.206 552.107 967.989 555.307 973.15 555.307C978.151 555.307 980.094 552.06 980.094 543.703C980.094 539.716 980.719 535.705 981.483 534.79C982.562 533.497 982.126 533.127 979.515 533.127C976.904 533.127 976.468 533.497 977.548 534.79C978.311 535.705 978.936 539.774 978.936 543.83C978.936 550.33 978.596 551.394 976.078 552.767C971.534 555.247 969.678 552.35 969.678 542.777C969.678 537.647 970.201 534.491 971.124 534.045C971.92 533.661 970.488 533.346 967.942 533.346C965.395 533.346 963.964 533.661 964.759 534.045ZM1000.35 544.217V555.307L1003.82 555.197C1005.73 555.138 1006.64 554.773 1005.84 554.389C1004.23 553.606 1003.83 545.603 1005.41 545.603C1005.96 545.603 1007.65 547.782 1009.17 550.445C1010.68 553.108 1012.88 555.292 1014.04 555.297C1015.86 555.305 1015.67 554.55 1012.68 550.034C1009.32 544.956 1009.28 544.698 1011.42 543.091C1014.3 540.943 1014.29 536.405 1011.42 534.562C1010.19 533.773 1007.19 533.127 1004.76 533.127H1000.35V544.217ZM1054.16 536.114C1054.16 538.92 1054.29 538.963 1056.28 536.807C1060.11 532.654 1061.11 533.984 1061.11 543.247C1061.11 548.191 1060.51 552.702 1059.72 553.643C1058.64 554.937 1059.16 555.307 1062.07 555.307C1065.42 555.307 1065.69 555.02 1064.62 552.626C1062.62 548.144 1063.1 535.959 1065.33 534.937C1066.49 534.402 1067.84 535.059 1068.8 536.633C1070.29 539.082 1070.37 539.06 1070.37 536.164C1070.37 533.328 1069.83 533.127 1062.27 533.127C1054.74 533.127 1054.16 533.34 1054.16 536.114ZM1088.97 536.78C1082.75 546.246 1090.44 558.76 1099.83 554.446C1104.88 552.121 1106.11 541.112 1101.92 535.553C1099 531.662 1091.89 532.335 1088.97 536.78ZM1122.85 536.246C1123.74 537.961 1125.42 542.639 1126.58 546.643C1127.74 550.646 1129.09 553.921 1129.57 553.921C1130.06 553.921 1131.08 551.421 1131.85 548.367C1133.43 542.043 1133.86 542.214 1136.52 550.224C1137.78 554.025 1138.66 555.289 1139.09 553.921C1144.92 535.219 1145.34 533.127 1143.25 533.127C1141.82 533.127 1141.35 533.906 1141.74 535.664C1142.04 537.06 1141.55 540.334 1140.64 542.942L1138.99 547.683L1137.05 542.211C1135.98 539.201 1135.37 535.926 1135.68 534.933C1136.08 533.693 1135.16 533.127 1132.74 533.127C1129.48 533.127 1129.36 533.292 1131.13 535.406C1132.42 536.95 1132.79 538.848 1132.29 541.297C1131 547.52 1129.73 547.426 1127.9 540.97C1126.92 537.539 1126.42 534.372 1126.79 533.93C1127.16 533.489 1126.06 533.127 1124.35 533.127C1121.42 533.127 1121.33 533.306 1122.85 536.246ZM1163.88 534.79C1164.64 535.705 1165.27 539.947 1165.27 544.217C1165.27 548.487 1164.64 552.728 1163.88 553.643C1162.8 554.937 1163.22 555.307 1165.76 555.307C1168.45 555.307 1168.79 554.96 1167.66 553.336C1166.91 552.25 1166.45 548.509 1166.65 545.018L1167.01 538.673L1172.79 547.264L1178.58 555.854L1178.92 545.571C1179.13 539.501 1179.84 534.853 1180.66 534.228C1181.49 533.594 1180.76 533.16 1178.83 533.148C1176 533.13 1175.75 533.454 1176.8 535.808C1178.18 538.896 1178.42 547.019 1177.13 546.93C1176.65 546.898 1174.27 543.779 1171.84 539.999C1168.99 535.575 1166.54 533.127 1164.95 533.127C1163.04 533.127 1162.8 533.497 1163.88 534.79ZM154.904 536.593C156.054 538.252 156.054 539.092 154.904 540.751C152.012 544.925 147.89 541.731 149.536 536.593C149.902 535.449 150.936 534.513 151.833 534.513C152.73 534.513 154.111 535.449 154.904 536.593ZM190.798 536.616C191.599 537.772 192.255 541.192 192.255 544.217C192.255 553.068 188.192 556.561 183.64 551.626C181.289 549.078 180.806 541.482 182.721 537.194C184.15 533.995 188.754 533.665 190.798 536.616ZM225.7 536.807C229.848 541.303 227.142 553.921 222.03 553.921C219.271 553.921 216.244 548.844 216.244 544.217C216.244 539.807 219.229 534.513 221.716 534.513C222.743 534.513 224.536 535.546 225.7 536.807ZM481.773 536.691C486.112 541.889 482.487 554.937 477.052 553.684C472.552 552.645 470.903 541.541 474.481 536.378C476.213 533.878 479.543 534.021 481.773 536.691ZM941.753 536.378C945.33 541.541 943.681 552.645 939.181 553.684C934.059 554.865 930.648 544.338 933.84 537.194C935.22 534.108 939.849 533.63 941.753 536.378ZM1008.85 535.74C1011.19 537.517 1009.95 542.074 1006.99 542.581C1004.79 542.957 1004.4 542.383 1004.4 538.769C1004.4 534.469 1005.86 533.472 1008.85 535.74ZM1099.42 536.767C1100.28 538.008 1100.98 541.36 1100.98 544.217C1100.98 553.233 1095.55 557.173 1091.84 550.839C1086.72 542.085 1093.89 528.781 1099.42 536.767ZM154.231 545.058C156.894 546.282 156.552 552.161 153.757 553.223C150.68 554.393 149.118 553.045 149.118 549.218C149.118 544.483 150.511 543.349 154.231 545.058Z" fill="#888888"/>
</svg>
