<svg width="517" height="444" viewBox="0 0 517 444" fill="none" xmlns="http://www.w3.org/2000/svg">
<g clip-path="url(#clip0_1_36)">
<path d="M144.5 298.519C175.704 298.519 201 270.182 201 235.226C201 200.269 175.704 171.932 144.5 171.932C113.296 171.932 88 200.269 88 235.226C88 270.182 113.296 298.519 144.5 298.519Z" fill="#E36165"/>
<path d="M131.242 327.793L145.843 337.431V272.285L129.476 261.483C128.123 260.59 127.135 259.188 126.706 257.555C128.27 257.237 129.888 257.556 131.242 258.449L145.843 268.086V242.825C145.843 237.938 146.406 233.069 147.519 228.328C148.632 233.069 149.194 237.938 149.194 242.825V284.056L170.736 269.838C172.456 268.703 174.446 268.118 176.469 268.153C175.598 270.099 174.221 271.737 172.501 272.872L149.194 288.255V443.62H145.843V341.63L129.476 330.827C128.123 329.934 127.135 328.532 126.706 326.899C128.27 326.581 129.888 326.9 131.242 327.793Z" fill="black" fill-opacity="0.91"/>
<path d="M59.3597 304.061C92.1432 304.061 118.719 275.754 118.719 240.835C118.719 205.916 92.1432 177.609 59.3597 177.609C26.5763 177.609 0 205.916 0 240.835C0 275.754 26.5763 304.061 59.3597 304.061Z" fill="#E36165"/>
<path d="M75.3975 333.162L60.7958 342.799V277.653L77.1626 266.851C78.5157 265.958 79.5044 264.556 79.9329 262.923C78.3693 262.605 76.7506 262.924 75.3975 263.817L60.7958 273.455V248.193C60.7958 243.306 60.2331 238.437 59.1203 233.696C58.0076 238.437 57.4449 243.306 57.4449 248.193V289.425L35.9033 275.207C34.1833 274.071 32.1931 273.486 30.1698 273.522C31.0407 275.467 32.4182 277.105 34.1383 278.24L57.4449 293.623V442.66H60.7958V346.998L77.1626 336.196C78.5157 335.302 79.5044 333.901 79.9329 332.268C78.3693 331.949 76.7506 332.269 75.3975 333.162Z" fill="black" fill-opacity="0.92"/>
<path d="M103.202 221.718C159.647 221.718 205.405 172.98 205.405 112.859C205.405 52.7379 159.647 4 103.202 4C46.7576 4 1 52.7379 1 112.859C1 172.98 46.7576 221.718 103.202 221.718Z" fill="#2F2E41"/>
<path d="M130.093 267.822L104.952 284.416V172.251L133.131 153.652C135.461 152.115 137.164 149.701 137.901 146.889C135.209 146.342 132.422 146.891 130.093 148.429L104.952 165.022V121.528C104.952 113.114 103.983 104.731 102.067 96.5685C100.151 104.731 99.1827 113.114 99.1827 121.528V192.518L62.0936 168.038C59.132 166.084 55.7054 165.077 52.2219 165.137C53.7213 168.487 56.093 171.307 59.0546 173.262L99.1827 199.748V442.899H104.952V291.645L133.131 273.046C135.461 271.508 137.164 269.095 137.901 266.283C135.209 265.735 132.422 266.285 130.093 267.822Z" fill="black" fill-opacity="0.76"/>
<path d="M517 442.699H20.5057V444H517V442.699Z" fill="#3F3D56"/>
<g opacity="0.1">
<path d="M388.755 155.602C388.755 154.709 388.755 153.811 388.755 152.909C388.721 153.605 388.721 154.302 388.755 154.997C388.748 155.199 388.755 155.4 388.755 155.602Z" fill="black"/>
</g>
<path d="M413.099 206.751C421.949 206.751 429.123 199.11 429.123 189.684C429.123 180.258 421.949 172.616 413.099 172.616C404.249 172.616 397.075 180.258 397.075 189.684C397.075 199.11 404.249 206.751 413.099 206.751Z" fill="#FFB8B8"/>
<path d="M454.774 328.082C455.4 327.472 455.892 326.723 456.216 325.889C456.541 325.054 456.689 324.154 456.652 323.252C456.614 322.35 456.392 321.467 455.999 320.667C455.607 319.866 455.054 319.167 454.381 318.618L452.196 297.946L440.028 301.484L445.952 320.09C445.162 321.356 444.835 322.887 445.034 324.393C445.233 325.898 445.943 327.274 447.031 328.259C448.118 329.245 449.507 329.771 450.934 329.738C452.361 329.705 453.728 329.116 454.774 328.082Z" fill="#FFB8B8"/>
<path d="M463.665 432.745L470.381 428.119L456.821 398.325L446.909 405.154L463.665 432.745Z" fill="#FFB8B8"/>
<path d="M487.367 425.837L466.26 440.379L460.985 431.693L474.242 422.56C475.273 421.849 476.425 421.362 477.632 421.126C478.84 420.89 480.079 420.91 481.28 421.184C482.48 421.459 483.618 421.982 484.629 422.725C485.639 423.467 486.503 424.415 487.17 425.513L487.367 425.837Z" fill="#2F2E41"/>
<path d="M404.188 435.773H412.187L415.993 402.913H404.188V435.773Z" fill="#FFB8B8"/>
<path d="M427.612 443.684H402.474V433.339H418.263C420.743 433.339 423.121 434.388 424.874 436.256C426.627 438.123 427.612 440.656 427.612 443.297V443.684Z" fill="#2F2E41"/>
<path d="M436.29 223.573C435.226 227.262 438.996 231.278 440.213 234.904C441.43 238.53 443.068 242.018 443.726 245.813C444.176 248.422 454.38 306.046 453.889 309.555C450.748 308.553 447.365 308.883 444.448 310.477C442.41 306.664 441.186 302.419 440.861 298.045C440.738 295.451 440.762 292.852 440.931 290.261C441.247 282.93 438.264 275.589 438.165 268.253C438.196 265.71 438.007 263.17 437.601 260.664C437.274 258.941 437.304 255.715 436.952 253.997C436.393 251.267 438.798 250.008 438.664 247.209L437.932 231.926C437.779 229.249 435.255 225.966 436.29 223.573Z" fill="#2F2E41"/>
<path d="M400.113 287.696C397.541 291.969 392.128 292.894 388.341 295.955C382.554 300.66 397.316 406.359 402.19 425.136C415.048 423.082 415.498 423.089 416.977 422.397C418.456 421.705 419.793 368.017 422.918 356.951C428.765 362.821 447.169 413.269 451.052 424.452C466.483 420.343 451.053 424.452 470.983 418.973C470.816 415.097 441.531 288.799 440.463 278.848C427.065 281.69 413.473 284.861 400.113 287.696Z" fill="#2F2E41"/>
<path d="M398.379 208.326C396.791 213.338 398.953 232.838 399.111 237.223C399.339 241.203 399.339 245.195 399.111 249.175C398.562 256.068 396.637 263.009 397.929 269.787C398.775 274.271 400.279 278.44 400.63 283.004C400.868 286.166 400.794 289.381 401.734 292.38C405.197 290.799 435.904 285.364 438.16 282.203C436.616 274.261 438.11 266.061 437.086 258.024C436.492 253.391 435.023 248.933 434.33 244.321C433.474 238.63 433.835 232.727 432.277 227.199C431.413 224.4 430.315 221.689 428.996 219.099C427.655 216.152 425.972 213.733 425.396 213.734C423.936 213.818 398.472 207.88 398.379 208.326Z" fill="#E36165"/>
<path d="M392.501 327.653C392.501 327.653 397.825 316.338 398.092 309.866C398.186 307.542 404.163 298.293 406.855 296.195C413.237 291.215 417.943 257.834 415.786 249.734C412.055 235.731 405.771 222.677 399.393 209.807C399.203 209.327 398.896 208.911 398.503 208.6C397.206 207.741 395.801 209.433 394.915 210.756C391.912 215.241 386.964 217.639 382.432 220.29C377.9 222.94 373.264 226.471 371.893 231.778C370.973 235.341 371.69 239.12 372.388 242.73C373.086 246.34 375.525 249.207 377.37 252.248C379.51 255.604 385.067 270.487 385.025 272.253C385.134 283.173 385.237 294.129 383.996 304.975C383.298 311.104 382.684 323.421 382.684 323.421L392.501 327.653Z" fill="#2F2E41"/>
<path d="M440.851 315.953C431.05 292.19 431.599 265.149 425.37 240.063C423.519 232.616 421.045 225.133 421.49 217.444C421.57 216.068 421.842 214.524 422.92 213.755C423.88 213.07 425.186 213.254 426.24 213.755C427.294 214.255 428.195 215.072 429.209 215.631C430.847 216.522 432.752 216.774 434.325 217.781C436.661 219.278 437.853 222.124 438.897 224.801C441.129 230.519 443.35 236.395 443.528 242.593C443.904 254.63 438.892 266.198 441.505 277.903C442.068 280.211 442.742 282.487 443.523 284.722C446.142 292.796 448.291 301.035 449.955 309.392C450.247 310.82 441.262 316.954 440.851 315.953Z" fill="#2F2E41"/>
<path d="M409.735 310.33C409.866 309.438 409.812 308.526 409.576 307.658C409.34 306.791 408.929 305.989 408.371 305.309C407.813 304.629 407.121 304.088 406.346 303.723C405.57 303.359 404.728 303.18 403.881 303.199L390.058 288.502L382.626 299.357L398.159 309.953C398.284 311.468 398.926 312.881 399.963 313.925C401.001 314.969 402.362 315.572 403.789 315.618C405.216 315.665 406.61 315.152 407.705 314.177C408.801 313.203 409.523 311.834 409.735 310.33Z" fill="#FFB8B8"/>
<path d="M365.693 276.954C365.921 279.162 383.335 302.45 392.798 310.05C392.249 307.052 399.665 297.27 402.065 295.742C396.068 289.716 383.539 275.741 383.125 274.978C381.769 272.19 383.125 268.859 384.307 265.976C388.033 256.812 389.79 246.414 387.4 236.753C386.499 233.128 384.926 229.497 382.061 227.267C380.809 226.298 379.117 225.633 377.727 226.371C377.144 226.728 376.639 227.211 376.242 227.789C371.804 233.539 365.525 275.315 365.693 276.954Z" fill="#2F2E41"/>
<path d="M406.269 204.618C407.205 200.39 402.475 191.293 403.411 187.064C404.044 184.201 410.366 186.148 411.841 183.66C413.316 181.173 415.787 179.159 418.549 179.126C421.723 179.088 424.847 181.596 427.854 180.512C430.895 179.416 431.866 174.981 430.522 171.876C429.178 168.772 426.282 166.793 423.421 165.243C418.549 162.603 412.877 160.675 407.663 162.422C404.511 163.478 401.875 165.765 399.325 168.003C397 170.043 394.636 172.129 393.011 174.83C389.827 180.121 390.019 187.251 392.74 192.828C395.461 198.404 400.418 202.497 405.881 204.873" fill="#2F2E41"/>
</g>
<defs>
<clipPath id="clip0_1_36">
<rect width="517" height="444" fill="white"/>
</clipPath>
</defs>
</svg>
