<svg width="517" height="426" viewBox="0 0 517 426" fill="none" xmlns="http://www.w3.org/2000/svg">
<g clip-path="url(#clip0_1_36)">
<path d="M144.5 286.417C175.704 286.417 201 259.228 201 225.689C201 192.15 175.704 164.962 144.5 164.962C113.296 164.962 88 192.15 88 225.689C88 259.228 113.296 286.417 144.5 286.417Z" fill="#E36165"/>
<path d="M131.242 314.504L145.843 323.751V261.247L129.476 250.882C128.123 250.025 127.135 248.68 126.706 247.113C128.27 246.808 129.888 247.114 131.242 247.971L145.843 257.218V232.98C145.843 228.292 146.406 223.62 147.519 219.072C148.632 223.62 149.194 228.292 149.194 232.98V272.54L170.736 258.899C172.456 257.81 174.446 257.248 176.469 257.282C175.598 259.149 174.221 260.72 172.501 261.81L149.194 276.569V425.636H145.843V327.78L129.476 317.415C128.123 316.558 127.135 315.213 126.706 313.647C128.27 313.341 129.888 313.648 131.242 314.504Z" fill="black" fill-opacity="0.91"/>
<path d="M59.3597 291.734C92.1432 291.734 118.719 264.574 118.719 231.071C118.719 197.568 92.1432 170.409 59.3597 170.409C26.5763 170.409 0 197.568 0 231.071C0 264.574 26.5763 291.734 59.3597 291.734Z" fill="#E36165"/>
<path d="M75.3975 319.655L60.7958 328.902V266.397L77.1626 256.033C78.5157 255.176 79.5044 253.831 79.9329 252.264C78.3693 251.959 76.7506 252.265 75.3975 253.122L60.7958 262.369V238.131C60.7958 233.442 60.2331 228.771 59.1203 224.222C58.0076 228.771 57.4449 233.442 57.4449 238.131V277.691L35.9033 264.049C34.1833 262.96 32.1931 262.399 30.1698 262.433C31.0407 264.3 32.4182 265.871 34.1383 266.96L57.4449 281.72V424.714H60.7958V332.931L77.1626 322.566C78.5157 321.709 79.5044 320.364 79.9329 318.797C78.3693 318.492 76.7506 318.798 75.3975 319.655Z" fill="black" fill-opacity="0.92"/>
<path d="M103.202 212.73C159.647 212.73 205.405 165.968 205.405 108.284C205.405 50.5998 159.647 3.83783 103.202 3.83783C46.7576 3.83783 1 50.5998 1 108.284C1 165.968 46.7576 212.73 103.202 212.73Z" fill="#2F2E41"/>
<path d="M130.093 256.965L104.952 272.885V165.268L133.131 147.423C135.461 145.948 137.164 143.632 137.901 140.934C135.209 140.409 132.422 140.936 130.093 142.411L104.952 158.332V116.601C104.952 108.528 103.983 100.486 102.067 92.6536C100.151 100.486 99.1827 108.528 99.1827 116.601V184.713L62.0936 161.226C59.132 159.351 55.7054 158.384 52.2219 158.443C53.7213 161.657 56.093 164.362 59.0546 166.238L99.1827 191.65V424.943H104.952V279.822L133.131 261.977C135.461 260.501 137.164 258.185 137.901 255.488C135.209 254.962 132.422 255.489 130.093 256.965Z" fill="black" fill-opacity="0.76"/>
<path d="M517 424.752H20.5057V426H517V424.752Z" fill="#E8E5E5" fill-opacity="0.94"/>
<g opacity="0.1">
<path d="M388.755 149.294C388.755 148.437 388.755 147.576 388.755 146.71C388.721 147.377 388.721 148.046 388.755 148.713C388.748 148.907 388.755 149.1 388.755 149.294Z" fill="black"/>
</g>
<path d="M413.099 198.37C421.949 198.37 429.123 191.038 429.123 181.994C429.123 172.95 421.949 165.618 413.099 165.618C404.249 165.618 397.075 172.95 397.075 181.994C397.075 191.038 404.249 198.37 413.099 198.37Z" fill="#FFB8B8"/>
<path d="M454.774 314.781C455.4 314.196 455.892 313.478 456.216 312.677C456.541 311.876 456.689 311.013 456.652 310.147C456.614 309.281 456.392 308.435 455.999 307.667C455.607 306.898 455.054 306.227 454.381 305.701L452.196 285.867L440.028 289.261L445.952 307.113C445.162 308.328 444.835 309.797 445.034 311.242C445.233 312.686 445.943 314.006 447.031 314.952C448.118 315.897 449.507 316.401 450.934 316.37C452.361 316.339 453.728 315.773 454.774 314.781Z" fill="#FFB8B8"/>
<path d="M463.665 415.202L470.381 410.762L456.821 382.177L446.909 388.729L463.665 415.202Z" fill="#FFB8B8"/>
<path d="M487.367 408.574L466.26 422.526L460.985 414.192L474.242 405.429C475.273 404.747 476.425 404.28 477.632 404.054C478.84 403.827 480.079 403.846 481.28 404.109C482.48 404.372 483.618 404.875 484.629 405.587C485.639 406.3 486.503 407.209 487.17 408.262L487.367 408.574Z" fill="#2F2E41"/>
<path d="M404.188 418.107H412.187L415.993 386.579H404.188V418.107Z" fill="#FFB8B8"/>
<path d="M427.612 425.697H402.474V415.771H418.263C420.743 415.771 423.121 416.778 424.874 418.57C426.627 420.361 427.612 422.792 427.612 425.326V425.697Z" fill="#2F2E41"/>
<path d="M436.29 214.509C435.226 218.049 438.996 221.902 440.213 225.381C441.43 228.859 443.068 232.207 443.726 235.847C444.176 238.35 454.38 293.639 453.889 297.005C450.748 296.044 447.365 296.361 444.448 297.89C442.41 294.232 441.186 290.159 440.861 285.962C440.738 283.473 440.762 280.98 440.931 278.494C441.247 271.46 438.264 264.417 438.165 257.378C438.196 254.938 438.007 252.501 437.601 250.097C437.274 248.443 437.304 245.349 436.952 243.7C436.393 241.081 438.798 239.872 438.664 237.187L437.932 222.524C437.779 219.955 435.255 216.805 436.29 214.509Z" fill="#2F2E41"/>
<path d="M400.113 276.033C397.541 280.133 392.128 281.02 388.341 283.957C382.554 288.471 397.316 389.885 402.19 407.901C415.048 405.93 415.498 405.937 416.977 405.273C418.456 404.609 419.793 353.098 422.918 342.48C428.765 348.112 447.169 396.514 451.052 407.244C466.483 403.302 451.053 407.244 470.983 401.988C470.816 398.269 441.531 277.091 440.463 267.544C427.065 270.271 413.473 273.313 400.113 276.033Z" fill="#2F2E41"/>
<path d="M398.379 199.881C396.791 204.689 398.953 223.398 399.111 227.605C399.339 231.425 399.339 235.254 399.111 239.073C398.562 245.687 396.637 252.347 397.929 258.849C398.775 263.152 400.279 267.152 400.63 271.531C400.868 274.565 400.794 277.649 401.734 280.526C405.197 279.009 435.904 273.795 438.16 270.762C436.616 263.142 438.11 255.274 437.086 247.563C436.492 243.119 435.023 238.841 434.33 234.416C433.474 228.955 433.835 223.292 432.277 217.988C431.413 215.302 430.315 212.701 428.996 210.216C427.655 207.39 425.972 205.068 425.396 205.069C423.936 205.15 398.472 199.452 398.379 199.881Z" fill="#E36165"/>
<path d="M392.501 314.369C392.501 314.369 397.825 303.513 398.092 297.304C398.186 295.074 404.163 286.2 406.855 284.187C413.237 279.409 417.943 247.381 415.786 239.609C412.055 226.174 405.771 213.65 399.393 201.302C399.203 200.841 398.896 200.441 398.503 200.144C397.206 199.319 395.801 200.943 394.915 202.212C391.912 206.515 386.964 208.816 382.432 211.359C377.9 213.902 373.264 217.29 371.893 222.382C370.973 225.8 371.69 229.426 372.388 232.889C373.086 236.353 375.525 239.104 377.37 242.021C379.51 245.241 385.067 259.521 385.025 261.216C385.134 271.693 385.237 282.205 383.996 292.611C383.298 298.492 382.684 310.309 382.684 310.309L392.501 314.369Z" fill="#2F2E41"/>
<path d="M440.851 303.144C431.05 280.344 431.599 254.4 425.37 230.331C423.519 223.186 421.045 216.006 421.49 208.628C421.57 207.309 421.842 205.827 422.92 205.089C423.88 204.432 425.186 204.609 426.24 205.089C427.294 205.569 428.195 206.353 429.209 206.889C430.847 207.744 432.752 207.986 434.325 208.952C436.661 210.388 437.853 213.119 438.897 215.687C441.129 221.174 443.35 226.812 443.528 232.758C443.904 244.307 438.892 255.406 441.505 266.636C442.068 268.851 442.742 271.035 443.523 273.179C446.142 280.926 448.291 288.831 449.955 296.849C450.247 298.219 441.262 304.105 440.851 303.144Z" fill="#2F2E41"/>
<path d="M409.735 297.749C409.866 296.893 409.812 296.018 409.576 295.186C409.34 294.353 408.929 293.584 408.371 292.931C407.813 292.279 407.121 291.76 406.346 291.41C405.57 291.06 404.728 290.889 403.881 290.907L390.058 276.806L382.626 287.221L398.159 297.387C398.284 298.84 398.926 300.197 399.963 301.198C401.001 302.2 402.362 302.778 403.789 302.823C405.216 302.867 406.61 302.376 407.705 301.441C408.801 300.505 409.523 299.192 409.735 297.749Z" fill="#FFB8B8"/>
<path d="M365.693 265.726C365.921 267.845 383.335 290.189 392.798 297.481C392.249 294.604 399.665 285.219 402.065 283.752C396.068 277.971 383.539 264.563 383.125 263.83C381.769 261.155 383.125 257.959 384.307 255.193C388.033 246.4 389.79 236.424 387.4 227.155C386.499 223.676 384.926 220.193 382.061 218.054C380.809 217.123 379.117 216.486 377.727 217.194C377.144 217.537 376.639 218 376.242 218.554C371.804 224.071 365.525 264.154 365.693 265.726Z" fill="#2F2E41"/>
<path d="M406.269 196.323C407.205 192.266 402.475 183.537 403.411 179.481C404.044 176.733 410.366 178.601 411.841 176.215C413.316 173.829 415.787 171.895 418.549 171.864C421.723 171.827 424.847 174.234 427.854 173.194C430.895 172.142 431.866 167.887 430.522 164.908C429.178 161.929 426.282 160.031 423.421 158.544C418.549 156.011 412.877 154.161 407.663 155.837C404.511 156.85 401.875 159.045 399.325 161.192C397 163.149 394.636 165.15 393.011 167.742C389.827 172.819 390.019 179.66 392.74 185.01C395.461 190.361 400.418 194.288 405.881 196.567" fill="#2F2E41"/>
</g>
<defs>
<clipPath id="clip0_1_36">
<rect width="517" height="426" fill="white"/>
</clipPath>
</defs>
</svg>
