<svg width="289" height="226" viewBox="0 0 289 226" fill="none" xmlns="http://www.w3.org/2000/svg">
<g clip-path="url(#clip0_1_166)">
<path d="M182.481 199.187L178.838 207.21L140.531 199.138L145.908 187.296L182.481 199.187Z" fill="#FFB7B7"/>
<path d="M192.601 200.128L180.854 226L180.467 225.874C177.311 224.848 174.766 222.803 173.392 220.189C172.018 217.575 171.927 214.606 173.139 211.936L173.139 211.935L180.314 196.133L192.601 200.128Z" fill="#2F2E41"/>
<path d="M124.272 98.7233L107.579 100.046L106.75 142.077C106.972 144.137 108.138 146.042 109.998 147.383C111.859 148.724 114.266 149.396 116.704 149.254L127.288 148.637L124.272 98.7233Z" fill="#E36165"/>
<path d="M183.124 96.6545L171.702 96.5302L171.025 146.472C173.549 146.543 176.064 146.174 178.411 145.386C180.759 144.599 182.89 143.41 184.671 141.895C186.452 140.38 187.845 138.571 188.763 136.58C189.681 134.589 190.105 132.459 190.007 130.324L183.124 96.6545Z" fill="#E36165"/>
<path d="M116.847 164.214C116.577 165.663 116.184 167.093 115.672 168.494C115.096 169.866 114.206 171.134 113.679 172.52C111.999 176.936 114.328 181.861 118.047 185.27C121.273 188.215 125.436 190.307 130.035 191.294C133.391 192.008 136.88 192.111 140.338 192.21C149.913 192.485 159.734 192.731 168.807 190.127C171.674 189.284 174.443 188.219 177.079 186.947C177.911 186.612 178.644 186.123 179.225 185.517C179.917 184.683 180.005 183.602 179.999 182.583C179.979 179.149 179.156 175.731 179.351 172.3C179.46 170.4 179.88 168.501 179.673 166.606C179.387 164.455 178.321 162.43 176.623 160.811C174.925 159.191 172.677 158.055 170.186 157.558C167.612 157.09 164.943 157.345 162.322 157.558C155.521 158.112 148.69 158.37 141.857 158.333C134.875 158.295 127.936 157.393 120.99 157.299C118.935 157.271 118.977 157.807 118.323 159.49C117.72 161.038 117.228 162.616 116.847 164.214Z" fill="#2F2E41"/>
<path d="M89.5463 161.422C87.6689 161.023 85.7345 160.849 83.7999 160.905C81.7672 161 79.7817 161.461 77.9754 162.255C76.1692 163.05 74.5835 164.161 73.3239 165.514C72.0644 166.868 71.1597 168.433 70.6701 170.105C70.1805 171.777 70.1172 173.518 70.4844 175.213C70.9532 177.048 71.7195 178.82 72.7615 180.478C74.2855 183.095 76.1133 185.706 78.9346 187.383C80.5849 188.364 82.495 188.976 84.3824 189.578L99.2415 194.315C101.427 195.011 103.614 195.708 105.821 196.354C116.912 199.598 128.475 201.544 140.188 202.136C143.756 202.316 147.378 202.366 150.859 201.678C151.685 201.515 152.566 201.272 153.044 200.679C153.328 200.262 153.495 199.795 153.533 199.315L154.447 193.898C154.576 193.135 154.7 192.333 154.369 191.615C153.95 190.704 152.9 190.132 151.899 189.645C142.131 184.897 130.724 182.278 122.502 175.762C120.566 174.228 118.946 171.796 116.594 170.754C113.927 169.572 110.786 168.898 108.03 167.809C102.003 165.428 96.0779 162.693 89.5463 161.422Z" fill="#2F2E41"/>
<path opacity="0.1" d="M104.381 168.725C109.633 170.117 131.807 179.766 135.608 183.134C135.099 183.289 117.813 175.092 117.295 174.961C112.58 173.763 107.839 172.558 103.362 170.806C102.461 170.453 97.5105 168.796 97.7347 167.835C97.9877 166.749 103.449 168.477 104.381 168.725Z" fill="black"/>
<path d="M136.078 84.5962L121.937 93.682C121.937 93.682 107.016 94.077 107.52 102.148C108.024 110.22 113.996 148.436 113.996 148.436L115.292 161.585L139.869 167.511C153.148 170.713 167.178 170.967 180.608 168.25L177.687 155.058C177.687 155.058 189.514 95.1473 182.389 92.5095C175.264 89.8718 170.811 90.6254 170.811 90.6254L161.881 84.031L136.078 84.5962Z" fill="#E36165"/>
<path d="M177.936 69.9206C177.936 81.7154 165.048 79.9314 149.149 79.9314C133.251 79.9314 120.363 81.7154 120.363 69.9206C120.363 58.1257 126.658 37.2186 149.149 37.2186C172.415 37.2186 177.936 58.1257 177.936 69.9206Z" fill="#2F2E41"/>
<path d="M164.092 83.7721C171.656 77.3707 171.656 66.9921 164.092 60.5907C156.527 54.1893 144.262 54.1893 136.697 60.5907C129.132 66.9921 129.132 77.3708 136.697 83.7721C144.262 90.1735 156.527 90.1735 164.092 83.7721Z" fill="#FFB7B7"/>
<path d="M126.672 61.9119H134.334L137.714 53.9033L138.389 61.9119H142.051L144.023 57.2402L144.417 61.9119H171.627C171.627 57.3099 169.466 52.8963 165.621 49.6422C161.775 46.388 156.559 44.5598 151.121 44.5598H147.178C141.739 44.5598 136.524 46.388 132.678 49.6422C128.832 52.8963 126.672 57.3099 126.672 61.9119Z" fill="#2F2E41"/>
<path d="M131.979 198.81L135.622 206.834L173.929 198.761L168.552 186.919L131.979 198.81Z" fill="#FFB7B7"/>
<path d="M134.145 195.757L141.32 211.558L141.32 211.559C142.532 214.23 142.441 217.198 141.067 219.812C139.693 222.426 137.148 224.471 133.992 225.497L133.605 225.623L121.858 199.752L134.145 195.757Z" fill="#2F2E41"/>
<path d="M208.55 158.351C211.627 157.698 214.817 157.514 217.971 157.806C220.49 158.041 223.085 158.634 224.923 160.109C227.162 161.905 227.881 164.682 227.941 167.291C228.039 172.488 226.002 177.553 222.178 181.62C221.244 182.649 220.133 183.554 218.883 184.304C217.534 185.018 216.097 185.605 214.596 186.052L181.32 197.159C172.566 200.081 163.78 203.011 154.649 204.938C154.153 205.141 153.581 205.168 153.061 205.014C152.54 204.861 152.113 204.538 151.874 204.118C151.866 204.106 151.859 204.093 151.852 204.08C148.937 200.555 146.491 196.769 144.559 192.79C144.468 192.696 144.404 192.584 144.375 192.464C144.345 192.344 144.35 192.221 144.389 192.103C144.428 191.985 144.5 191.877 144.599 191.788C144.697 191.699 144.82 191.631 144.956 191.591L168.493 180.147C170.179 179.327 171.884 178.496 173.284 177.354C174.301 176.52 175.134 175.538 175.743 174.456C176.231 173.594 176.276 171.559 176.9 170.922C177.51 170.298 179.597 170.248 180.561 170.002C181.92 169.65 183.252 169.224 184.547 168.727C189.812 166.734 194.5 163.838 199.547 161.505C202.378 160.135 205.403 159.075 208.55 158.351Z" fill="#2F2E41"/>
<path opacity="0.1" d="M195.206 166.897C191.163 169.467 185.927 171.83 181.919 174.467C180.551 175.368 157.75 186.215 157.428 187.656C161.167 188.189 184.984 174.089 188.392 172.682C191.8 171.276 194.82 169.291 197.814 167.322C198.577 166.82 201.81 165.311 199.62 164.751C198.386 164.435 196.117 166.383 195.206 166.897Z" fill="black"/>
<path d="M267.887 67.72C275.572 67.72 281.802 62.4482 281.802 55.9452C281.802 49.4422 275.572 44.1704 267.887 44.1704C260.202 44.1704 253.972 49.4422 253.972 55.9452C253.972 62.4482 260.202 67.72 267.887 67.72Z" fill="#F1F1F1"/>
<path d="M242.134 69.8289C247.525 69.8289 251.895 66.1308 251.895 61.569C251.895 57.0071 247.525 53.3091 242.134 53.3091C214 61.569 242.134 65.2671 242.134 69.8289Z" fill="#F1F1F1"/>
<path d="M63.3276 64.4407C67.6502 64.4407 71.1543 61.4755 71.1543 57.8177C71.1543 54.16 67.6502 51.1948 63.3276 51.1948C59.0051 51.1948 55.501 54.16 55.501 57.8177C55.501 61.4755 59.0051 64.4407 63.3276 64.4407Z" fill="#F1F1F1"/>
<path d="M76.2134 68.8943C79.2456 68.8943 81.7037 66.8142 81.7037 64.2483C81.7037 61.6824 79.2456 59.6024 76.2134 59.6024C73.1812 59.6024 70.7231 61.6824 70.7231 64.2483C70.7231 66.8142 73.1812 68.8943 76.2134 68.8943Z" fill="#F1F1F1"/>
<path d="M152.138 10.1253C155.443 10.1253 158.121 7.85868 158.121 5.06265C158.121 2.26663 155.443 0 152.138 0C148.834 0 146.156 2.26663 146.156 5.06265C146.156 7.85868 148.834 10.1253 152.138 10.1253Z" fill="#F1F1F1"/>
<path opacity="0.17" d="M116.485 111.727L117.019 108.234C117.019 108.234 136.968 109.466 133.851 113.611C130.734 117.756 123.164 118.133 123.164 118.133L116.485 111.727Z" fill="#2F2E41"/>
<path d="M131.543 96.5387C132.686 96.6451 133.786 96.9643 134.766 97.4734C135.746 97.9824 136.58 98.6687 137.209 99.4829C137.783 100.226 138.172 101.059 138.356 101.933C138.539 102.807 138.511 103.703 138.275 104.567C138.039 105.432 137.598 106.247 136.98 106.964C136.362 107.68 135.579 108.284 134.679 108.739C134.348 108.904 134.004 109.047 133.648 109.167L121.386 140.906C121.03 141.532 120.532 142.093 119.92 142.556C119.308 143.018 118.594 143.374 117.818 143.603C117.043 143.831 116.222 143.928 115.403 143.887C114.583 143.846 113.781 143.668 113.043 143.364C112.305 143.06 111.645 142.636 111.101 142.115C110.558 141.594 110.141 140.988 109.876 140.331C109.61 139.673 109.5 138.978 109.553 138.285C109.606 137.592 109.82 136.914 110.184 136.291L123.224 104.905C122.869 103.867 122.821 102.77 123.086 101.712C123.351 100.655 123.92 99.6689 124.743 98.8417C125.565 98.0144 126.616 97.3716 127.802 96.9699C128.988 96.5682 130.273 96.4201 131.543 96.5387Z" fill="#FFB7B7"/>
<path d="M116.668 108.532C116.668 108.532 123.694 118.69 133.851 113.611L124.007 145.49H115.713L107.133 144.134L109.536 130.963L116.668 108.532Z" fill="#E36165"/>
<path d="M166.835 115.475L161.015 108.713C161.015 108.713 163.812 101.699 174.659 104.264C174.659 104.264 181.562 117.338 166.835 115.475Z" fill="#E5E5E5"/>
<path opacity="0.17" d="M166.835 115.475L161.015 108.713C161.015 108.713 163.812 101.699 174.659 104.264C174.659 104.264 181.562 117.338 166.835 115.475Z" fill="#2F2E41"/>
<path d="M168.376 91.8497C170.055 92.5102 171.399 93.6589 172.161 95.0867C172.924 96.5145 173.056 98.1266 172.533 99.6297L185.573 131.016C185.936 131.639 186.151 132.316 186.204 133.01C186.257 133.703 186.147 134.398 185.881 135.055C185.616 135.713 185.199 136.319 184.655 136.84C184.112 137.36 183.452 137.785 182.714 138.089C181.976 138.393 181.174 138.571 180.354 138.612C179.535 138.653 178.714 138.556 177.938 138.328C177.163 138.099 176.449 137.743 175.837 137.28C175.224 136.818 174.726 136.257 174.371 135.631L162.109 103.892C161.753 103.772 161.408 103.628 161.078 103.463C160.177 103.009 159.394 102.405 158.776 101.688C158.159 100.971 157.718 100.156 157.482 99.2916C157.245 98.4271 157.218 97.5312 157.401 96.6575C157.584 95.7838 157.974 94.9504 158.547 94.2074C159.177 93.3932 160.011 92.707 160.991 92.1979C161.97 91.6889 163.071 91.3697 164.214 91.2633C165.639 91.1266 167.08 91.3297 168.376 91.8497Z" fill="#FFB7B7"/>
<path d="M161.015 108.713C161.015 108.713 170.618 113.644 174.659 104.264L188.191 134.415L184.17 140.365L183.589 140.406C181.19 140.576 178.779 140.25 176.561 139.456C174.344 138.663 172.388 137.426 170.86 135.852C167.744 132.641 165.623 128.824 164.689 124.745L161.015 108.713Z" fill="#E36165"/>
</g>
<defs>
<clipPath id="clip0_1_166">
<rect width="289" height="226" fill="white"/>
</clipPath>
</defs>
</svg>
