<svg width="795" height="739" viewBox="0 0 795 739" fill="none" xmlns="http://www.w3.org/2000/svg">
<g clip-path="url(#clip0_1_97)">
<path d="M133.42 738.81C133.42 738.81 121.967 706.059 156.326 681.497L133.42 738.81Z" fill="black"/>
<path d="M119.334 738.214C119.334 738.214 115.841 714.871 88.7989 715.072L119.334 738.214Z" fill="black"/>
<path d="M516.909 738.81C516.909 738.81 505.456 706.059 539.815 681.497L516.909 738.81Z" fill="black"/>
<path d="M502.824 738.214C502.824 738.214 499.33 714.871 472.288 715.072L502.824 738.214Z" fill="black"/>
<path d="M507.475 526.754C562.459 526.754 607.033 474.974 607.033 411.099C607.033 347.225 562.459 295.445 507.475 295.445C452.492 295.445 407.918 347.225 407.918 411.099C407.918 474.974 452.492 526.754 507.475 526.754Z" fill="#2F2E41"/>
<path d="M507.749 411.099H508.023L512.946 739H502.552L507.749 411.099Z" fill="black"/>
<path d="M721.224 584.194C761.327 584.194 793.838 546.427 793.838 499.839C793.838 453.251 761.327 415.483 721.224 415.483C681.12 415.483 648.609 453.251 648.609 499.839C648.609 546.427 681.12 584.194 721.224 584.194Z" fill="#E36165"/>
<path d="M721.423 499.838H721.623L725.213 739.001H717.632L721.423 499.838Z" fill="black"/>
<path d="M629.771 383.891C721.025 383.891 795 297.954 795 191.945C795 85.9369 721.025 0 629.771 0C538.518 0 464.542 85.9369 464.542 191.945C464.542 297.954 538.518 383.891 629.771 383.891Z" fill="#E36165"/>
<path opacity="0.1" d="M751.771 63.7409C767.183 105.622 769.274 152.505 757.669 196.012C746.065 239.519 721.522 276.815 688.426 301.236C655.33 325.656 615.837 335.61 577.005 329.318C538.173 323.026 502.532 300.899 476.451 266.89C485.866 292.478 499.957 315.382 517.748 334.015C535.539 352.648 556.604 366.565 579.485 374.801C602.365 383.038 626.514 385.397 650.257 381.716C674 378.034 696.771 368.4 716.991 353.48C737.211 338.56 754.397 318.712 767.358 295.311C780.319 271.909 788.746 245.514 792.055 217.953C795.363 190.393 793.474 162.326 786.518 135.698C779.562 109.07 767.706 84.5175 751.771 63.7409Z" fill="black"/>
<path d="M629.318 191.945H628.863L620.692 736.142H637.942L629.318 191.945Z" fill="black" fill-opacity="0.81"/>
<path d="M749.915 738.463H0.898101C0.65991 738.463 0.431474 738.353 0.263047 738.157C0.0946204 737.961 0 737.696 0 737.419C0 737.143 0.0946204 736.877 0.263047 736.682C0.431474 736.486 0.65991 736.376 0.898101 736.376H749.915C750.153 736.376 750.381 736.486 750.55 736.682C750.718 736.877 750.813 737.143 750.813 737.419C750.813 737.696 750.718 737.961 750.55 738.157C750.381 738.353 750.153 738.463 749.915 738.463Z" fill="#CACACA"/>
</g>
<defs>
<clipPath id="clip0_1_97">
<rect width="795" height="739" fill="white"/>
</clipPath>
</defs>
</svg>
