<svg width="664" height="602" viewBox="0 0 664 602" fill="none" xmlns="http://www.w3.org/2000/svg">
<g clip-path="url(#clip0_6_204)">
<path d="M242.765 461.803H29.1529C21.4702 461.794 14.1047 458.738 8.67227 453.306C3.23981 447.873 0.184041 440.508 0.175354 432.825V132.321C0.175354 59.3589 59.5338 0 132.496 0H242.765C250.448 0.00867869 257.813 3.06439 263.245 8.49675C268.678 13.9291 271.734 21.2945 271.742 28.977V432.825C271.734 440.508 268.678 447.873 263.245 453.306C257.813 458.738 250.447 461.794 242.765 461.803Z" fill="url(#paint0_linear_6_204)"/>
<path d="M36.6223 261.155C33.3866 261.158 30.2844 262.445 27.9964 264.733C25.7084 267.021 24.4214 270.123 24.4177 273.359V341.95C24.4214 345.185 25.7084 348.288 27.9964 350.576C30.2844 352.864 33.3865 354.151 36.6223 354.155H244.213C247.449 354.151 250.551 352.864 252.839 350.576C255.127 348.288 256.414 345.185 256.418 341.95V273.359C256.414 270.123 255.127 267.021 252.839 264.733C250.551 262.445 247.449 261.158 244.213 261.155H36.6223Z" fill="white"/>
<path d="M244.713 216.655H37.1223C33.6214 216.651 30.265 215.258 27.7895 212.783C25.314 210.307 23.9216 206.951 23.9177 203.45C23.9422 181.764 32.5678 160.973 47.9021 145.639C63.2364 130.305 84.0271 121.679 105.713 121.655H244.713C248.214 121.659 251.57 123.051 254.046 125.526C256.521 128.002 257.914 131.358 257.918 134.859V203.45C257.914 206.951 256.521 210.307 254.046 212.783C251.57 215.258 248.214 216.651 244.713 216.655Z" fill="white"/>
<path d="M334.089 343.632H95.119C93.7144 343.63 92.3678 343.071 91.3746 342.078C90.3814 341.085 89.8227 339.738 89.8211 338.334V275.368C89.8227 273.964 90.3814 272.617 91.3746 271.624C92.3678 270.631 93.7144 270.072 95.119 270.071H334.089C335.494 270.072 336.84 270.631 337.834 271.624C338.827 272.617 339.385 273.964 339.387 275.368V338.334C339.385 339.738 338.827 341.085 337.834 342.078C336.84 343.071 335.494 343.63 334.089 343.632Z" fill="white"/>
<path d="M334.089 344.632H95.1191C93.4494 344.63 91.8487 343.966 90.668 342.785C89.4873 341.604 88.8232 340.003 88.8213 338.334V275.368C88.8232 273.699 89.4873 272.098 90.668 270.917C91.8487 269.737 93.4494 269.072 95.1191 269.071H334.089C335.759 269.072 337.36 269.737 338.541 270.917C339.721 272.098 340.385 273.699 340.387 275.368V338.334C340.385 340.003 339.721 341.604 338.541 342.785C337.36 343.966 335.759 344.63 334.089 344.632ZM95.1191 271.071C93.9797 271.072 92.8873 271.525 92.0816 272.331C91.2759 273.137 90.8227 274.229 90.8213 275.368V338.334C90.8227 339.473 91.2759 340.566 92.0816 341.371C92.8873 342.177 93.9797 342.63 95.1191 342.632H334.089C335.229 342.63 336.321 342.177 337.127 341.371C337.933 340.566 338.386 339.473 338.387 338.334V275.368C338.386 274.229 337.933 273.137 337.127 272.331C336.321 271.525 335.229 271.072 334.089 271.071L95.1191 271.071Z" fill="#CCCCCC"/>
<path d="M115.439 299.916C120.187 299.916 124.036 296.067 124.036 291.319C124.036 286.571 120.187 282.722 115.439 282.722C110.691 282.722 106.842 286.571 106.842 291.319C106.842 296.067 110.691 299.916 115.439 299.916Z" fill="#E36165"/>
<path d="M319.805 312.983H109.403C108.724 312.983 108.072 312.713 107.592 312.233C107.112 311.753 106.843 311.102 106.843 310.423C106.843 309.744 107.112 309.093 107.592 308.613C108.072 308.132 108.724 307.863 109.403 307.863H319.805C320.484 307.863 321.135 308.132 321.615 308.613C322.095 309.093 322.365 309.744 322.365 310.423C322.365 311.102 322.095 311.753 321.615 312.233C321.135 312.713 320.484 312.983 319.805 312.983Z" fill="#E36165"/>
<path d="M298.899 323.099H109.403C109.066 323.099 108.732 323.034 108.421 322.905C108.11 322.777 107.827 322.588 107.589 322.351C107.351 322.113 107.162 321.83 107.033 321.519C106.904 321.208 106.837 320.875 106.837 320.539C106.837 320.202 106.904 319.869 107.033 319.558C107.162 319.247 107.351 318.964 107.589 318.726C107.827 318.489 108.11 318.3 108.421 318.172C108.732 318.043 109.066 317.978 109.403 317.978H298.899C299.578 317.978 300.229 318.248 300.709 318.728C301.189 319.208 301.459 319.86 301.459 320.539C301.459 321.218 301.189 321.869 300.709 322.349C300.229 322.829 299.578 323.099 298.899 323.099Z" fill="#E36165"/>
<path d="M597.792 489.477L405.67 347.365C404.542 346.529 403.792 345.279 403.584 343.889C403.376 342.5 403.728 341.085 404.562 339.955L442.006 289.334C442.843 288.205 444.093 287.455 445.482 287.247C446.871 287.039 448.286 287.391 449.416 288.225L641.538 430.337C642.666 431.173 643.417 432.423 643.625 433.812C643.833 435.202 643.481 436.616 642.647 437.747L605.202 488.368C604.366 489.496 603.116 490.247 601.727 490.455C600.338 490.662 598.923 490.311 597.792 489.477Z" fill="white"/>
<path d="M597.198 490.281L405.076 348.169C403.734 347.175 402.842 345.689 402.595 344.037C402.348 342.386 402.766 340.704 403.758 339.361L441.202 288.739C442.197 287.398 443.682 286.506 445.334 286.259C446.985 286.012 448.667 286.43 450.011 287.421L642.133 429.533C643.474 430.527 644.366 432.013 644.613 433.665C644.86 435.316 644.442 436.998 643.451 438.341L606.006 488.963C605.012 490.304 603.526 491.196 601.875 491.443C600.223 491.69 598.541 491.272 597.198 490.281ZM448.821 289.029C447.904 288.353 446.757 288.067 445.63 288.236C444.503 288.405 443.489 289.013 442.81 289.929L405.366 340.55C404.689 341.467 404.404 342.615 404.572 343.742C404.741 344.869 405.35 345.883 406.265 346.561L598.387 488.673C599.304 489.35 600.452 489.635 601.579 489.466C602.706 489.298 603.72 488.689 604.398 487.774L641.843 437.152C642.52 436.235 642.805 435.087 642.636 433.96C642.468 432.834 641.859 431.82 640.944 431.141L448.821 289.029Z" fill="#CCCCCC"/>
<path d="M453.117 325.989C457.865 325.989 461.714 322.14 461.714 317.392C461.714 312.644 457.865 308.795 453.117 308.795C448.369 308.795 444.52 312.644 444.52 317.392C444.52 322.14 448.369 325.989 453.117 325.989Z" fill="#E36165"/>
<path d="M604.535 456.342L435.38 331.219C434.834 330.815 434.471 330.211 434.371 329.54C434.27 328.868 434.441 328.184 434.844 327.638C435.248 327.092 435.852 326.729 436.524 326.629C437.195 326.528 437.879 326.699 438.425 327.103L607.58 452.225C607.85 452.425 608.078 452.677 608.251 452.965C608.424 453.253 608.539 453.572 608.589 453.905C608.639 454.237 608.622 454.576 608.541 454.902C608.46 455.229 608.315 455.536 608.115 455.806C607.915 456.076 607.664 456.305 607.376 456.478C607.088 456.651 606.768 456.766 606.436 456.815C606.103 456.865 605.764 456.849 605.438 456.768C605.112 456.686 604.805 456.542 604.535 456.342Z" fill="#E36165"/>
<path d="M581.711 452.042L429.364 339.352C429.094 339.152 428.866 338.901 428.692 338.612C428.519 338.324 428.404 338.005 428.355 337.672C428.254 337.001 428.425 336.317 428.828 335.771C429.232 335.225 429.836 334.862 430.508 334.761C431.179 334.661 431.863 334.831 432.409 335.235L584.756 447.925C585.302 448.329 585.665 448.933 585.766 449.605C585.866 450.276 585.696 450.96 585.292 451.506C584.888 452.052 584.284 452.415 583.613 452.516C582.941 452.616 582.257 452.446 581.711 452.042Z" fill="#E36165"/>
<path d="M508.08 339.864C507.023 339.016 506.163 337.949 505.56 336.736C504.956 335.522 504.624 334.193 504.585 332.838C504.546 331.484 504.801 330.137 505.334 328.892C505.867 327.646 506.663 326.53 507.669 325.623L492.523 281.524L503.691 274.335L521.297 326.844C522.699 328.651 523.389 330.91 523.237 333.192C523.085 335.473 522.101 337.62 520.472 339.225C518.842 340.83 516.681 341.782 514.397 341.899C512.113 342.017 509.866 341.293 508.08 339.864Z" fill="#FFB6B6"/>
<path d="M495.154 218.189C497.829 229.504 501.822 239.389 501.281 244.136C500.746 248.87 506.531 253.419 504.692 257.161C502.858 260.912 508.506 261.314 506.979 267.351C505.446 273.401 504.45 274.695 505.744 275.691C507.047 276.683 513.932 299.775 513.932 299.775L509.894 301.255L498.11 305.554L470.418 260.007L470.502 204.101L477.377 203.88C479.028 204.499 480.857 205.242 482.68 206.137C488.25 208.825 493.885 212.8 495.154 218.189Z" fill="#E36165"/>
<path d="M393.183 572.925L378.783 572.924L371.932 517.38L393.185 517.381L393.183 572.925Z" fill="#FFB6B6"/>
<path d="M349.719 594.172C349.726 595.785 350.369 597.33 351.508 598.472C352.648 599.614 354.192 600.26 355.805 600.27H382.913L383.753 598.53L387.587 590.617L389.073 598.53L389.401 600.27H399.626L399.48 598.517L396.753 565.822L393.187 565.603L377.776 564.69L373.991 564.458V574.221C371.118 577.276 348.574 588.828 349.719 594.172Z" fill="#2F2E41"/>
<path d="M561.89 557.25L549.365 564.356L515.996 519.427L534.481 508.939L561.89 557.25Z" fill="#FFB6B6"/>
<path d="M534.571 597.178C535.368 598.583 536.69 599.615 538.246 600.046C539.803 600.477 541.467 600.273 542.873 599.479L544.297 598.676H544.309L566.451 586.101L565.745 575.402L572.099 582.9L576.786 580.234L580.985 577.848L577.273 572.419L561.485 549.304L558.271 550.886L544.407 557.69L541.023 559.358L545.831 567.842C544.845 571.932 530.944 593.088 534.571 597.178Z" fill="#2F2E41"/>
<path d="M464.646 300.271C483.943 313.058 503.046 435.911 498.033 433.905L543.516 518.67L478.777 547.69L436.21 399.888L429.116 454.279L438.575 540.595L396.729 550.715L367.785 548.648C375.306 445.76 394.084 337.246 409.646 295.271L464.646 300.271Z" fill="#2F2E41"/>
<path d="M479.298 309.395L479.508 310.185C459.108 321.535 443.718 329.025 421.418 322.155L406.598 308.815L399.688 282.165L400.118 214.965C400.134 212.384 400.681 209.834 401.724 207.473C402.767 205.113 404.284 202.992 406.181 201.242C408.078 199.492 410.314 198.151 412.751 197.301C415.188 196.452 417.774 196.113 420.348 196.305L435.008 185.445L455.878 186.165L469.838 201.585L478.178 204.565L484.658 206.875C485.968 208.055 487.398 209.415 488.768 210.915L478.518 271.915L474.158 290.155L479.298 309.395Z" fill="#E36165"/>
<path d="M458.326 179.711C471.285 172.585 476.013 156.303 468.886 143.344C461.76 130.385 445.478 125.657 432.519 132.784C419.56 139.91 414.832 156.192 421.959 169.151C429.085 182.11 445.367 186.838 458.326 179.711Z" fill="#FFB6B6"/>
<path d="M480.632 146.919C480.552 146.949 480.482 146.979 480.402 147.01C480.249 147.077 480.092 147.134 479.932 147.181C478.911 147.556 477.847 147.8 476.764 147.909C476.302 147.959 475.839 147.983 475.374 147.982C474.779 147.984 474.184 147.946 473.594 147.867C472.938 147.786 472.289 147.654 471.653 147.472C471.351 147.391 471.054 147.295 470.762 147.184C468.774 146.478 466.977 145.32 465.513 143.802C464.048 142.284 462.955 140.447 462.32 138.435V138.425C462.252 138.229 462.195 138.028 462.149 137.826C461.851 136.7 461.7 135.541 461.7 134.377V134.357C461.692 131.518 462.577 128.749 464.23 126.44C465.226 125.028 466.377 124.792 465.732 123.177C463.672 118.024 472.099 113.812 477.074 116.078C477.253 116.061 477.433 116.054 477.614 116.057C480.964 116.048 482.206 120.995 484.203 123.78L484.145 123.799C483.64 123.976 483.202 124.306 482.893 124.745C482.585 125.183 482.421 125.706 482.424 126.242C482.428 126.778 482.599 127.299 482.913 127.733C483.228 128.167 483.67 128.492 484.178 128.662C485.508 129.095 486.851 129.478 488.208 129.81C492.685 135.097 487.553 150.564 480.632 146.919Z" fill="#2F2E41"/>
<path d="M478.167 161.095C476.692 166.729 473.966 172.226 469.445 175.887C464.914 179.549 443.606 188.223 441.807 180.797C443.01 185.984 442.285 187.966 440.35 189.821C440.019 189.372 439.668 188.943 439.307 188.524C437.977 186.991 436.381 185.712 434.597 184.746C434.551 187.879 434.776 191.01 435.271 194.104C434.473 194.84 433.714 195.616 432.997 196.43C429.551 186.158 421.997 173.856 427.466 164.504C429.636 160.792 427.827 160.284 425.904 159.858C422.548 159.114 420.697 145.341 419.899 141.993C418.908 137.795 418.516 132.966 421.117 129.52C423.719 126.073 430.298 125.926 431.629 130.033L434.399 126.266C437.979 118.387 447.483 119.963 456.076 120.981C464.668 121.989 472.254 128.03 476.123 135.77C479.983 143.511 480.356 152.72 478.167 161.095Z" fill="#2F2E41"/>
<path d="M464.621 125.104C464.439 129.855 465.657 134.555 468.124 138.62C470.591 142.685 474.198 145.935 478.497 147.966C480.243 148.757 481.762 146.169 480.004 145.372C476.163 143.6 472.935 140.727 470.731 137.117C468.526 133.507 467.444 129.323 467.621 125.097C467.721 123.167 464.721 123.181 464.621 125.104Z" fill="#E36165"/>
<path d="M340.679 311.857C341.984 311.494 343.195 310.853 344.229 309.976C345.262 309.1 346.092 308.009 346.663 306.78C347.233 305.551 347.529 304.213 347.532 302.858C347.534 301.503 347.242 300.164 346.676 298.933L377.995 264.39L370.57 253.378L333.672 294.677C331.671 295.784 330.145 297.587 329.385 299.744C328.624 301.901 328.681 304.262 329.545 306.379C330.408 308.497 332.019 310.224 334.071 311.233C336.123 312.243 338.474 312.465 340.679 311.857Z" fill="#FFB6B6"/>
<path d="M429.706 199.791C429.706 199.791 407.493 195.802 400.57 205.153C393.647 214.504 386.078 222.005 384.701 226.575C383.324 231.145 376.216 233.034 376.427 237.203C376.637 241.372 371.283 239.51 370.307 245.667C369.332 251.825 369.733 253.412 368.146 253.814C366.559 254.215 351.127 272.712 351.127 272.712L363.382 284.267L406.796 253.343L429.706 199.791Z" fill="#E36165"/>
<path d="M229.788 59.4066C242.286 59.4066 252.418 49.2748 252.418 36.7767C252.418 24.2785 242.286 14.1468 229.788 14.1468C217.29 14.1468 207.158 24.2785 207.158 36.7767C207.158 49.2748 217.29 59.4066 229.788 59.4066Z" fill="#E36165"/>
<path d="M229.788 48.9504C229.532 48.9504 229.287 48.849 229.107 48.6684C228.926 48.4878 228.825 48.2428 228.825 47.9874V25.7024C228.825 25.447 228.926 25.2021 229.107 25.0215C229.287 24.8409 229.532 24.7394 229.788 24.7394C230.043 24.7394 230.288 24.8409 230.469 25.0215C230.649 25.2021 230.751 25.447 230.751 25.7024V47.9874C230.751 48.2428 230.649 48.4878 230.469 48.6684C230.288 48.849 230.043 48.9504 229.788 48.9504Z" fill="white"/>
<path d="M240.93 37.8078H218.645C218.39 37.8078 218.145 37.7064 217.964 37.5258C217.784 37.3452 217.682 37.1002 217.682 36.8448C217.682 36.5894 217.784 36.3445 217.964 36.1639C218.145 35.9833 218.39 35.8818 218.645 35.8818H240.93C241.186 35.8818 241.431 35.9833 241.611 36.1639C241.792 36.3445 241.893 36.5894 241.893 36.8448C241.893 37.1002 241.792 37.3452 241.611 37.5258C241.431 37.7064 241.186 37.8078 240.93 37.8078Z" fill="white"/>
<path d="M581.6 600.05L581.467 599.336C579.293 587.352 579.755 575.039 582.821 563.252C585.887 551.465 591.483 540.486 599.22 531.08C603.602 525.839 608.627 521.17 614.175 517.184L614.704 516.802L614.935 517.411C617.695 524.688 621.178 531.975 622.766 535.201L623.837 511.122L624.449 510.798C627.249 509.297 630.435 508.67 633.596 508.996C636.756 509.322 639.747 510.587 642.182 512.628C644.701 514.653 646.556 517.385 647.508 520.473C648.461 523.561 648.466 526.863 647.525 529.954C646.693 532.784 645.907 535.718 645.146 538.556C642.533 548.308 639.831 558.392 634.595 566.883C630.569 573.272 625.167 578.68 618.783 582.713C612.399 586.747 605.194 589.303 597.696 590.196L581.6 600.05Z" fill="#7C7B98"/>
<path d="M663.67 599.874C663.671 600.03 663.64 600.185 663.58 600.33C663.521 600.475 663.433 600.606 663.323 600.717C663.212 600.827 663.081 600.915 662.936 600.974C662.791 601.034 662.636 601.065 662.48 601.064H1.19003C0.874425 601.064 0.57174 600.939 0.348572 600.716C0.125403 600.492 3.05176e-05 600.19 3.05176e-05 599.874C3.05176e-05 599.558 0.125403 599.256 0.348572 599.033C0.57174 598.809 0.874425 598.684 1.19003 598.684H662.48C662.636 598.684 662.791 598.714 662.936 598.774C663.081 598.833 663.212 598.921 663.323 599.032C663.433 599.142 663.521 599.274 663.58 599.418C663.64 599.563 663.671 599.718 663.67 599.874Z" fill="#CCCCCC"/>
</g>
<defs>
<linearGradient id="paint0_linear_6_204" x1="135.959" y1="-4.9114e-07" x2="136" y2="473" gradientUnits="userSpaceOnUse">
<stop stop-color="#161520"/>
<stop offset="1" stop-color="#2F2E3C" stop-opacity="0.76"/>
</linearGradient>
<clipPath id="clip0_6_204">
<rect width="663.67" height="601.064" fill="white"/>
</clipPath>
</defs>
</svg>
